<svg width="33" height="33" fill="none" xmlns="http://www.w3.org/2000/svg"><path d="M30.302 30.071a.725.725 0 01-.558.535A64.926 64.926 0 0116.24 32a64.92 64.92 0 01-13.231-1.394.735.735 0 01-.564-.557 62.268 62.268 0 01.006-26.71.729.729 0 01.524-.551A51.176 51.176 0 0115.983 1c5.647-.04 10.37.86 13.801 1.787a.73.73 0 01.518.523 53.544 53.544 0 011.693 12.646 53.598 53.598 0 01-1.687 14.109l-.006.005z" stroke="#000" stroke-width="2" stroke-miterlimit="10"/><path d="M23.203 22.801a.73.73 0 01-.564.54 31.1 31.1 0 01-6.267.62c-2.377 0-4.45-.278-6.126-.62a.732.732 0 01-.57-.562 30.354 30.354 0 01-.644-6.486 29.99 29.99 0 01.65-5.899.727.727 0 01.53-.552 24.4 24.4 0 016.034-.796 24.746 24.746 0 016.422.802.736.736 0 01.524.529c.387 1.553.73 3.544.758 5.87a26.03 26.03 0 01-.752 6.56l.005-.006z" stroke="#000" stroke-width="2" stroke-miterlimit="10"/><path d="M2.547 2.913l6.678 6.508a.74.74 0 001.1-.074c1.236-1.57 4.222-5.74 5.487-7.515a.737.737 0 011.19-.011l5.58 7.458a.737.737 0 001.11.08l6.496-6.452M2.547 30.51c.21-.172 4.929-4.933 6.627-6.651a.731.731 0 011.117.085l5.367 7.276a.741.741 0 001.18.017l5.726-7.321a.74.74 0 011.111-.063l6.507 6.662M9.778 9.961l-8 5.962a.735.735 0 00-.005 1.178l8.01 6.15m13.305-.007l8.114-6.052a.741.741 0 000-1.184l-8.114-6.053" stroke="#000" stroke-width="2" stroke-miterlimit="10"/></svg>