<svg width="42" height="41" fill="none" xmlns="http://www.w3.org/2000/svg"><path d="M40.626 8.774H33.27a5.69 5.69 0 00.861-3.014c0-3.173-2.583-5.76-5.75-5.76-2.149 0-4.092.894-5.332 2.445-.632.791-1.398 2.42-2.046 3.948-.648-1.527-1.414-3.165-2.054-3.948C17.71.895 15.767 0 13.626 0a5.756 5.756 0 00-5.75 5.76 5.68 5.68 0 00.853 3.014H1.374C.616 8.774 0 9.392 0 10.151v7.58c0 .76.616 1.377 1.374 1.377H2.67V39.63c0 .76.616 1.377 1.374 1.377h33.92c.758 0 1.374-.617 1.374-1.377V19.108h1.295c.759 0 1.375-.61 1.375-1.377v-7.58c0-.76-.616-1.377-1.375-1.377h-.008zM39.25 11.52v4.834H26.644V11.52h12.607zM10.617 5.76a3.005 3.005 0 013.01-3.007c1.318 0 2.448.507 3.182 1.409.546.688 1.462 2.769 2.197 4.612h-5.38a3.011 3.011 0 01-3.01-3.014zm17.757-3.007a3.01 3.01 0 110 6.021h-5.387c.734-1.843 1.65-3.924 2.196-4.612.726-.91 1.864-1.409 3.19-1.409zm-10.277 8.775h5.806v26.734h-5.806V11.52v.008zm-15.356 0h12.615v4.834H2.741v-4.834zm2.67 7.58h9.945v19.154H5.411V19.108zm31.178 19.154h-9.937V19.108h9.937v19.154z" fill="#000"/></svg>