<svg width="47" height="40" fill="none" xmlns="http://www.w3.org/2000/svg"><path d="M2.732 35.074c0-.26-.089-.378.162-.574a6.195 6.195 0 001.876-2.303c1.06-2.19.459-4.22.125-5.061a.464.464 0 01.142-.53c9.504-8.245 18.99-16.49 28.486-24.729a.66.66 0 01.844 0l.275.24a.66.66 0 00.844 0l1.11-.965a.66.66 0 01.844 0l7.408 6.433a.47.47 0 010 .732l-.86.747a.47.47 0 000 .733l.025.021a.47.47 0 010 .733L15.159 35.62a.646.646 0 01-.593.13 8.402 8.402 0 00-4.518.014c-1.788.515-2.898 1.502-3.466 2.14-.217.246-.635.268-.894.043-.985-.855-1.23-1.092-2.216-1.948l-.74-.926z" stroke="#000" stroke-width="2" stroke-miterlimit="10"/><path d="M5.596 27.302l8.477 7.6c.41.363 1.086.37 1.495.007L43.41 10.53c.41-.363.401-.943-.017-1.298L34.9 2.19c-.409-.34-1.052-.334-1.461.007L5.613 26.026c-.41.348-.418.92-.017 1.276z" fill="#000"/><path d="M38.68 8.071L13.168 30.225c-.177.153.025.578.451.948l.587.51c.426.37.915.545 1.092.39L40.81 9.922c.177-.154-.025-.579-.451-.949l-.587-.51c-.426-.37-.915-.544-1.092-.39zm-3.847-4L9.32 26.225c-.177.153.025.578.451.948l.587.51c.426.37.915.545 1.092.39L36.962 5.922c.177-.154-.025-.579-.45-.949l-.588-.51c-.426-.37-.914-.544-1.091-.39z" fill="#fff"/><path d="M3.939 37.675c.381-.331.383-.867.003-1.197a1.082 1.082 0 00-1.379.002L.691 38.106c-.382.331-.383.867-.003 1.197.38.33.997.329 1.379-.002l1.872-1.626z" fill="#000"/></svg>