<svg width="42" height="42" viewBox="0 0 42 42" fill="none" xmlns="http://www.w3.org/2000/svg">
<path fill-rule="evenodd" clip-rule="evenodd" d="M23.4948 7.25192C23.3737 7.2501 23.2334 7.25006 23.0503 7.25006H15.75C14.0436 7.25006 12.9649 7.25431 12.1761 7.36036C11.4447 7.45869 11.2684 7.61037 11.1894 7.6894C11.1103 7.76842 10.9586 7.94478 10.8603 8.6761C10.7543 9.46496 10.75 10.5436 10.75 12.2501V29.7501C10.75 31.4565 10.7543 32.5352 10.8603 33.324C10.9586 34.0553 11.1103 34.2317 11.1894 34.3107C11.2684 34.3897 11.4447 34.5414 12.1761 34.6398C12.9649 34.7458 14.0436 34.7501 15.75 34.7501H26.25C27.9565 34.7501 29.0351 34.7458 29.824 34.6398C30.5553 34.5414 30.7316 34.3897 30.8107 34.3107C30.8897 34.2317 31.0414 34.0553 31.1397 33.324C31.2458 32.5352 31.25 31.4565 31.25 29.7501V15.4498C31.25 15.2667 31.25 15.1264 31.2482 15.0053C31.2471 14.9326 31.2454 14.876 31.2435 14.8312C31.2132 14.7981 31.1743 14.7569 31.1237 14.7048C31.0393 14.6179 30.9402 14.5186 30.8107 14.3891L24.1109 7.6894C23.9814 7.55992 23.8822 7.46076 23.7953 7.37638C23.7432 7.32579 23.702 7.28692 23.6689 7.25661C23.624 7.25463 23.5674 7.253 23.4948 7.25192ZM23.2005 3.24951C23.7469 3.2466 24.503 3.24256 25.2102 3.53551C25.9174 3.82846 26.4492 4.36596 26.8335 4.75438C26.8701 4.79138 26.9054 4.82702 26.9394 4.86097L33.6391 11.5607C33.673 11.5947 33.7087 11.6299 33.7457 11.6665C34.1341 12.0508 34.6716 12.5826 34.9646 13.2899C35.2575 13.9971 35.2535 14.7532 35.2506 15.2996C35.2503 15.3517 35.25 15.4018 35.25 15.4498L35.25 29.878C35.2501 31.4182 35.2502 32.7697 35.104 33.857C34.9461 35.0319 34.5852 36.193 33.6391 37.1391C32.693 38.0852 31.5318 38.4461 30.357 38.6041C29.2696 38.7503 27.9181 38.7502 26.3779 38.7501H15.6221C14.0819 38.7502 12.7304 38.7503 11.6431 38.6041C10.4682 38.4461 9.30703 38.0852 8.36092 37.1391C7.41482 36.193 7.05395 35.0319 6.89599 33.857C6.7498 32.7697 6.7499 31.4182 6.75001 29.878L6.75001 12.2501C6.75001 12.2073 6.75001 12.1646 6.75001 12.1221C6.7499 10.5819 6.7498 9.23045 6.89599 8.14311C7.05395 6.96824 7.41482 5.80707 8.36092 4.86097C9.30703 3.91487 10.4682 3.55399 11.6431 3.39603C12.7304 3.24984 14.0819 3.24994 15.6221 3.25005C15.6646 3.25006 15.7072 3.25006 15.75 3.25006H23.0503C23.0983 3.25006 23.1484 3.24979 23.2005 3.24951Z" fill="#201D1E"/>
<path fill-rule="evenodd" clip-rule="evenodd" d="M13.75 22.75C13.75 21.6454 14.6454 20.75 15.75 20.75L26.25 20.75C27.3546 20.75 28.25 21.6454 28.25 22.75C28.25 23.8546 27.3546 24.75 26.25 24.75L15.75 24.75C14.6454 24.75 13.75 23.8546 13.75 22.75Z" fill="#201D1E"/>
<path fill-rule="evenodd" clip-rule="evenodd" d="M13.75 29.75C13.75 28.6454 14.6454 27.75 15.75 27.75L22.75 27.75C23.8546 27.75 24.75 28.6454 24.75 29.75C24.75 30.8546 23.8546 31.75 22.75 31.75L15.75 31.75C14.6454 31.75 13.75 30.8546 13.75 29.75Z" fill="#201D1E"/>
<path fill-rule="evenodd" clip-rule="evenodd" d="M20.75 12.25V5.25H24.75V12.25C24.75 12.9756 24.7529 13.4156 24.7773 13.7227C25.0845 13.7471 25.5244 13.75 26.25 13.75H33.25V17.75H26.25C26.2156 17.75 26.1811 17.75 26.1466 17.75C25.4121 17.7502 24.6754 17.7504 24.0633 17.6681C23.365 17.5742 22.5382 17.3415 21.8484 16.6517C21.1586 15.9618 20.9258 15.135 20.8319 14.4367C20.7497 13.8247 20.7498 13.0879 20.75 12.3535C20.75 12.319 20.75 12.2845 20.75 12.25Z" fill="#201D1E"/>
</svg>
