<svg width="42" height="42" viewBox="0 0 42 42" fill="none" xmlns="http://www.w3.org/2000/svg">
<path fill-rule="evenodd" clip-rule="evenodd" d="M31.5 9C30.6716 9 30 9.67157 30 10.5C30 11.3284 30.6716 12 31.5 12C32.3284 12 33 11.3284 33 10.5C33 9.67157 32.3284 9 31.5 9ZM26 10.5C26 7.46243 28.4624 5 31.5 5C34.5376 5 37 7.46243 37 10.5C37 13.5376 34.5376 16 31.5 16C28.4624 16 26 13.5376 26 10.5Z" fill="#201D1E"/>
<path fill-rule="evenodd" clip-rule="evenodd" d="M18.2682 19.96L8.53621 32.125H26.7836L18.2682 19.96ZM15.979 16.4184C17.2296 14.8552 19.6312 14.9321 20.7793 16.5721L31.162 31.4046C32.5538 33.3929 31.1314 36.125 28.7043 36.125H6.45558C3.94006 36.125 2.54154 33.2152 4.11298 31.2509L15.979 16.4184Z" fill="#201D1E"/>
<path fill-rule="evenodd" clip-rule="evenodd" d="M24.8713 18.6752C26.187 17.3596 28.3706 17.5465 29.4436 19.0665L38.146 31.395C39.5487 33.3822 38.1275 36.125 35.6951 36.125H18.375C17.2704 36.125 16.375 35.2296 16.375 34.125C16.375 33.0204 17.2704 32.125 18.375 32.125H33.7652L26.8603 22.3431L25.0392 24.1642C24.2582 24.9453 22.9918 24.9453 22.2108 24.1642C21.4297 23.3832 21.4297 22.1168 22.2108 21.3358L24.8713 18.6752Z" fill="#201D1E"/>
</svg>
