<svg width="24" height="24" viewBox="0 0 24 24" fill="none" xmlns="http://www.w3.org/2000/svg">
<path fill-rule="evenodd" clip-rule="evenodd" d="M16.5711 8.04173C16.5711 10.2667 14.6039 12.0741 12.1947 12.0741C9.78486 12.0741 7.81764 10.2667 7.81764 8.04173C7.81764 5.80741 9.78486 4 12.1947 4C14.6039 4 16.5711 5.80741 16.5711 8.04173ZM14.3441 8.04173C14.3441 6.9392 13.3785 6.04746 12.1947 6.04746C11.0102 6.04746 10.0446 6.93853 10.0453 8.04173C10.0453 9.13495 11.0109 10.0267 12.1947 10.0267C13.3785 10.0267 14.3441 9.13495 14.3441 8.04173ZM8.31054 14.4447C7.21056 13.7903 6.72845 13.4073 7.15307 12.606C7.40313 12.1512 8.0875 11.7675 8.99422 12.4285C8.99422 12.4285 10.2189 13.3295 12.1958 13.3295C14.172 13.3295 15.3974 12.4285 15.3974 12.4285C16.3048 11.7708 16.9864 12.1512 17.2392 12.606C17.6576 13.4073 17.1755 13.7897 16.0755 14.4473L16.0762 14.448C15.1522 14.9906 13.8797 15.2054 13.0395 15.2865C12.9229 15.1787 13.94 16.1152 14.8719 16.9732C15.6069 17.6499 16.2889 18.2778 16.3201 18.3062C17.2614 19.1973 15.7299 20.5904 14.7781 19.7299C14.1444 19.1352 13.2196 18.2811 12.2512 17.3868L12.2034 17.3427L9.62872 19.7266C8.67767 20.5838 7.14545 19.1787 8.0972 18.3029C10.9345 15.6829 11.3556 15.294 11.3673 15.2832C11.3611 15.2889 11.2487 15.3927 11.3674 15.2832C11.3673 15.2832 11.3673 15.2832 11.3673 15.2832C10.5374 15.2021 9.24563 14.9993 8.31054 14.4447Z" fill="white"/>
</svg>
