<svg width="25" height="24" viewBox="0 0 25 24" fill="none" xmlns="http://www.w3.org/2000/svg">
<path d="M6.25742 4.90617L6.87069 4.29289C7.26122 3.90237 7.89438 3.90237 8.28491 4.29289L10.8707 6.87868C11.2612 7.2692 11.2612 7.90237 10.8707 8.29289L9.07828 10.0853C8.7794 10.3842 8.7053 10.8408 8.89433 11.2189C9.98709 13.4044 11.7592 15.1765 13.9447 16.2693C14.3228 16.4583 14.7794 16.3842 15.0783 16.0853L16.8707 14.2929C17.2612 13.9024 17.8944 13.9024 18.2849 14.2929L20.8707 16.8787C21.2612 17.2692 21.2612 17.9024 20.8707 18.2929L20.2574 18.9062C18.1461 21.0175 14.8035 21.2551 12.4148 19.4635L11.2064 18.5572C9.46284 17.2496 7.91402 15.7007 6.60637 13.9572L5.70006 12.7488C3.90852 10.3601 4.14607 7.01752 6.25742 4.90617Z" fill="white"/>
</svg>
