<svg width="17" height="17" viewBox="0 0 17 17" fill="none" xmlns="http://www.w3.org/2000/svg">
<path fill-rule="evenodd" clip-rule="evenodd" d="M9.69981 1.2C9.69981 0.537258 9.16255 0 8.49981 0C7.83706 0 7.29981 0.537258 7.29981 1.2L7.29981 7L1.4998 7C0.837063 7 0.299805 7.53726 0.299805 8.2C0.299805 8.86274 0.837063 9.4 1.4998 9.4H7.29981L7.29981 15.2C7.29981 15.8627 7.83706 16.4 8.49981 16.4C9.16255 16.4 9.69981 15.8627 9.69981 15.2V9.4H15.4998C16.1625 9.4 16.6998 8.86274 16.6998 8.2C16.6998 7.53726 16.1625 7 15.4998 7L9.69981 7V1.2Z" fill="#201D1E"/>
</svg>
