<svg width="16" height="15" viewBox="0 0 16 15" fill="none" xmlns="http://www.w3.org/2000/svg">
<path d="M3.24446 4.22686L4.50316 3.83826C4.60235 3.80767 4.70654 3.79709 4.80978 3.80711C4.91303 3.81712 5.01331 3.84755 5.10489 3.89665C5.19647 3.94575 5.27757 4.01256 5.34355 4.09326C5.40953 4.17397 5.4591 4.26699 5.48943 4.36701C5.51977 4.46704 5.53026 4.57211 5.52033 4.67623C5.5104 4.78034 5.48022 4.88146 5.43153 4.97382C5.38285 5.06618 5.3166 5.14796 5.23657 5.2145C5.15654 5.28103 5.06429 5.33102 4.96511 5.36161L1.94469 6.2933C1.84545 6.3239 1.74121 6.33447 1.63792 6.32441C1.53463 6.31435 1.43431 6.28386 1.34271 6.23468C1.25112 6.18549 1.17003 6.11859 1.10409 6.03778C1.03815 5.95698 0.988648 5.86386 0.958418 5.76375L0.0345269 2.71785C0.00419513 2.61782 -0.00630321 2.51275 0.0036313 2.40864C0.0135658 2.30452 0.0437386 2.2034 0.092427 2.11104C0.141115 2.01868 0.207366 1.9369 0.287396 1.87036C0.367425 1.80383 0.459667 1.75384 0.558855 1.72325C0.759173 1.66147 0.975622 1.68248 1.16058 1.78164C1.34555 1.8808 1.48387 2.04999 1.54513 2.252L1.89258 3.39949C3.79405 0.44596 7.56622 -0.824163 10.9151 0.559833C11.9166 0.973805 12.816 1.60408 13.55 2.40629C14.284 3.20851 14.8347 4.16319 15.1634 5.20315C15.1971 5.30332 15.2107 5.40927 15.2034 5.5148C15.196 5.62032 15.1679 5.72332 15.1206 5.81776C15.0733 5.9122 15.0079 5.99619 14.9281 6.06484C14.8483 6.13349 14.7557 6.18541 14.6557 6.21757C14.5558 6.24974 14.4505 6.2615 14.346 6.25217C14.2415 6.24285 14.1399 6.21262 14.0472 6.16325C13.9544 6.11388 13.8723 6.04637 13.8057 5.96465C13.739 5.88293 13.6892 5.78865 13.6592 5.68731C13.3256 4.63089 12.7025 3.69117 11.8618 2.97665C11.0212 2.26213 9.99729 1.80194 8.90836 1.64923C7.81943 1.49652 6.70988 1.65751 5.70781 2.11361C4.70574 2.56971 3.85124 3.30233 3.24446 4.22686ZM12.9785 10.7527L11.5769 11.1054C11.4754 11.1335 11.3693 11.1408 11.265 11.127C11.1607 11.1131 11.0601 11.0784 10.9693 11.0248C10.8784 10.9712 10.7991 10.8999 10.7361 10.8149C10.673 10.73 10.6273 10.6332 10.6019 10.5302C10.5764 10.4273 10.5716 10.3202 10.5877 10.2153C10.6039 10.1105 10.6406 10.0099 10.6958 9.91956C10.7511 9.82923 10.8237 9.75093 10.9093 9.68929C10.995 9.62764 11.092 9.58388 11.1947 9.56058L14.0714 8.83673C14.2212 8.76482 14.3898 8.74252 14.553 8.77303C14.7103 8.79388 14.8577 8.86201 14.976 8.96854C15.0943 9.07507 15.1781 9.21505 15.2164 9.37026L15.9807 12.46C16.026 12.6629 15.9908 12.8756 15.8825 13.0527C15.7743 13.2297 15.6016 13.3571 15.4015 13.4074C15.2014 13.4578 14.9896 13.4272 14.8116 13.3221C14.6336 13.2171 14.5034 13.046 14.4488 12.8454L14.1882 11.7927C13.4279 12.896 12.3866 13.7721 11.174 14.3288C9.96134 14.8854 8.62228 15.1019 7.29787 14.9555C5.97345 14.8091 4.71271 14.3052 3.64845 13.4969C2.58419 12.6885 1.75581 11.6057 1.25059 10.3625L1.04528 9.85761C1.00598 9.76082 0.985965 9.65718 0.986382 9.5526C0.986799 9.44802 1.00764 9.34454 1.04771 9.24808C1.08778 9.15162 1.1463 9.06406 1.21993 8.99041C1.29356 8.91676 1.38085 8.85845 1.47682 8.81881C1.67065 8.73877 1.88807 8.73965 2.08125 8.82127C2.1769 8.86168 2.26373 8.92069 2.33676 8.99494C2.4098 9.06919 2.46762 9.15722 2.50692 9.254L2.71223 9.75807C3.11476 10.7485 3.77786 11.6094 4.62999 12.2476C5.48212 12.8859 6.49091 13.2774 7.5475 13.3798C8.6041 13.4823 9.66838 13.2918 10.6255 12.8289C11.5826 12.3661 12.3962 11.6477 12.9785 10.7527Z" fill="black"/>
</svg>
