<svg width="25" height="24" viewBox="0 0 25 24" fill="none" xmlns="http://www.w3.org/2000/svg">
<path fill-rule="evenodd" clip-rule="evenodd" d="M21.087 7.67711C21.2122 7.28684 21.087 7 20.4915 7H18.5223C18.0215 7 17.7908 7.24776 17.6657 7.52105C17.6657 7.52105 16.6642 9.80434 15.2455 11.2875C14.7865 11.7168 14.5779 11.8533 14.3276 11.8533C14.2024 11.8533 14.0212 11.7168 14.0212 11.3266V7.67711C14.0212 7.20868 13.8759 7 13.4586 7H10.3641C10.0513 7 9.86308 7.21737 9.86308 7.42342C9.86308 7.8675 10.5723 7.96987 10.6454 9.21882V11.9316C10.6454 12.5263 10.5306 12.6342 10.2803 12.6342C9.61271 12.6342 7.98895 10.3405 7.02573 7.71618C6.83697 7.20605 6.64764 7 6.14437 7H4.17516C3.61253 7 3.5 7.24776 3.5 7.52105C3.5 8.00895 4.1677 10.4289 6.60854 13.6295C8.23595 15.815 10.5284 17 12.6146 17C13.8665 17 14.0212 16.7368 14.0212 16.2836V14.6316C14.0212 14.1053 14.1398 14.0003 14.536 14.0003C14.8283 14.0003 15.3289 14.1368 16.4973 15.1907C17.8325 16.4395 18.0525 17 18.8036 17H20.7728C21.3354 17 21.6167 16.7368 21.4544 16.2175C21.2769 15.6999 20.6394 14.9491 19.7935 14.0588C19.3346 13.5513 18.646 13.0049 18.4376 12.7317C18.1454 12.3804 18.2288 12.2243 18.4376 11.9122C18.4376 11.9122 20.8366 8.75066 21.087 7.67724V7.67711Z" fill="white"/>
</svg>
