<svg width="212" height="80" viewBox="0 0 212 80" fill="none" xmlns="http://www.w3.org/2000/svg">
<path d="M32.9276 30.6782C32.9365 30.6753 32.9454 30.6753 32.9514 30.6723C32.9514 30.6546 32.9484 30.6368 32.9484 30.6161C32.9395 30.6368 32.9365 30.6546 32.9276 30.6782ZM37.3179 32.8571C39.2186 32.8926 40.8367 33.209 42.2526 33.7263C42.44 33.75 42.5233 33.6051 42.2526 33.617C41.1699 32.937 38.7219 32.4935 37.3179 32.8571ZM30.9347 28.7329C30.9347 29.2798 32.8592 29.7558 32.9484 30.6161C33.3351 29.54 31.7646 29.2 30.9347 28.7329ZM37.6451 33.5105C38.1359 33.6436 38.6237 34.3531 38.9628 34.2733C38.5821 34.0309 38.0943 33.3213 37.6451 33.5105ZM51.997 39.8197V39.7044H49.8673C49.9773 39.6896 50.0815 39.6689 50.1796 39.6423C50.8965 39.4501 51.2772 38.983 51.3545 38.2025L51.3664 38.0783H50.373L50.364 38.1818C50.3462 38.3325 50.3016 38.4833 50.1499 38.5986C49.9982 38.7139 49.7453 38.7908 49.3111 38.7908C49.1356 38.7908 48.9958 38.776 48.8708 38.7524C48.38 38.6607 48.2789 38.4094 48.2581 38.1818L48.2492 38.0783H47.2438L47.2587 38.2054C47.3509 39.1249 47.8893 39.6216 48.8976 39.725C49.0285 39.7398 49.1653 39.7487 49.3111 39.7487C49.4033 39.7487 49.4836 39.7398 49.5669 39.7339L49.549 39.7842L48.7995 42.108L48.3295 43.5566L48.4455 39.8226L48.4485 39.7073H46.4823V39.8197L46.4853 46.6639V46.7763H48.9482L48.9749 46.6964L49.8465 44.0149L50.1618 43.0481L50.0368 46.658L50.0339 46.7763H50.1528L51.884 46.7733H52V46.661L51.997 39.8197ZM25.3218 44.9787V44.1568C25.3218 43.8405 25.2564 43.7843 24.8816 43.7843H24.5722V45.3483H24.8816C25.2564 45.3483 25.3218 45.2921 25.3218 44.9787ZM27.4605 44.2012V44.9048C27.4605 46.5102 26.5324 46.7822 24.4562 46.7822H22.4366V46.6698L22.4336 39.8256V39.7132H22.5466L24.4562 39.7103H24.5693V39.8256L24.5722 42.3504H24.7715C26.5146 42.3504 27.4605 42.6461 27.4605 44.2012ZM30.3606 46.7792V46.6669L30.3576 39.8256V39.7103H28.2219V46.7822H28.3379L30.2446 46.7792H30.3606ZM36.027 60.9378L36.024 52.2457C36.024 51.3233 35.8069 51.0602 34.9116 51.0602C34.0162 51.0602 33.7723 51.3026 33.7723 52.2457L33.7753 60.9408C33.7753 61.4079 33.8378 61.7006 34.0192 61.875C34.1917 62.0435 34.4713 62.1027 34.9116 62.1027C35.8039 62.1027 36.024 61.8632 36.027 60.9526C36.027 60.9467 36.027 60.9437 36.027 60.9378ZM40.3817 59.699L40.3846 60.3879C40.3846 64.3171 39.4417 65 34.9145 65C32.8354 65 31.5088 64.8226 30.6759 64.255C30.2773 63.98 29.9858 63.6223 29.7895 63.1404C29.5188 62.4722 29.4177 61.5794 29.4177 60.3908L29.4147 52.775C29.4147 49.0646 30.4082 48.1628 34.9086 48.1628C39.3406 48.1599 40.3817 49.0616 40.3817 52.772V59.699ZM43.5465 46.7792H45.5126V46.6639L45.5097 39.8197V39.7073H43.0914L43.0646 39.7871L41.8421 43.5626L41.9581 39.8256L41.9611 39.7073H39.995V39.8226L39.9979 46.6639V46.7792H42.4638L42.4876 46.6994L43.6744 43.0481L43.5525 46.661L43.5465 46.7792ZM51.6609 48.355L48.7132 48.358H41.7112V51.2553H44.5697V55.6457L44.5727 64.799H48.8084L48.8054 51.2553L51.6609 51.2524V48.355ZM16.4906 61.9992L16.4876 54.8001C13.7957 56.6213 7.24883 52.5887 8.03409 46.5989C8.2661 43.1575 9.77714 40.2395 10.5535 36.5705C11.2436 33.3124 13.0848 29.9864 14.8308 28.2835C16.44 26.7077 19.4294 25.2649 22.508 25.5546C23.6888 25.667 24.5574 26.2849 26.235 25.9892C26.3153 24.7564 26.4254 22.7194 27.5527 22.1754C28.2755 23.4555 28.9596 24.7741 29.965 25.7705C31.0864 25.7586 31.8895 25.4305 32.7075 25.1171C32.7104 25.3181 32.7878 25.4778 32.9127 25.6138C32.9157 25.6197 32.9216 25.6256 32.9246 25.6315C33.3619 26.0868 34.3375 26.2553 34.7926 26.752C36.0984 26.2997 37.5737 25.4512 39.0699 25.5517C39.0818 27.4202 38.2162 29.3508 36.6576 30.0219C36.8777 31.2252 37.4399 32.5438 36.9878 33.4011C38.3025 34.7079 38.7814 35.4677 38.5404 35.926L48.5555 35.923C47.7346 31.1306 45.4561 26.7136 41.9254 23.2042C37.425 18.737 31.4463 16.2772 25.0868 16.2772C11.9604 16.2831 1.28201 26.8998 1.28498 39.9468C1.28795 49.9781 7.60577 58.5637 16.4906 61.9992ZM38.4125 35.4736C37.66 34.3945 37.2614 33.9215 36.8747 33.6879C36.3155 35.0124 33.6474 34.0693 33.5284 34.6399C34.1679 34.7996 34.6915 35.4204 34.7807 35.926C34.8194 36.1477 34.7807 36.3458 34.632 36.4759C35.2388 36.535 37.3923 36.3547 38.1657 35.926C38.4006 35.7959 38.5137 35.6481 38.4125 35.4736ZM34.3553 36.127C34.3464 36.059 34.3345 35.994 34.3196 35.926C34.2036 35.3583 33.924 34.9533 33.2578 34.9296C33.2607 34.9976 33.2459 35.0509 33.228 35.1011L32.9573 34.9355L32.9157 35.1455L32.9038 35.2194C32.9841 35.2637 33.0704 35.3051 33.1417 35.3495C33.1477 35.3524 33.1566 35.3583 33.1655 35.3613C33.5314 35.3435 33.4184 35.5416 33.1655 35.5091C33.1566 35.5062 33.1507 35.5032 33.1417 35.5002C33.0555 35.4707 32.9692 35.4411 32.88 35.4115C32.88 35.4529 32.883 35.4914 32.8859 35.5298L32.9157 35.6421C32.6777 35.7042 32.4546 35.7811 32.3029 35.926C32.2464 35.9821 32.1959 36.0472 32.1631 36.127C32.3208 36.2216 32.5082 36.2926 32.4903 36.5646C32.2107 36.5084 32.1066 36.4197 31.943 36.674C32.1393 36.9755 32.3357 37.2741 32.7045 37.4042C32.9038 37.4752 33.1507 37.4959 33.4779 37.4367C33.4808 37.4279 33.4808 37.416 33.4838 37.4042C33.5225 37.2002 33.3589 36.7952 33.5879 36.7833C33.8764 36.7508 33.6742 37.2061 34.0281 37.1086C34.3702 36.736 33.8735 36.535 33.9181 36.127C34.2155 36.1181 34.1382 36.3103 34.3553 36.127ZM28.5402 26.208C28.2011 24.9811 28.097 23.5206 27.4426 22.61C26.6008 23.8399 26.0089 26.7786 27.0708 28.1179C27.1511 28.2155 27.2374 28.3101 27.3326 28.3899C27.743 28.2894 27.9096 27.9464 28.3201 27.8459V27.843C28.4331 26.9501 27.4545 26.6249 27.5527 26.0986C27.752 26.0927 27.9245 26.6574 28.1 26.3174C27.9751 26.2819 27.5854 25.9804 27.8799 25.8828C28.2041 25.8592 28.2071 26.3706 28.4272 26.2878C28.4272 26.2849 28.4302 26.2849 28.4302 26.2849C28.4629 26.2731 28.4986 26.2494 28.5402 26.208ZM28.0048 31.4055C28.1 31.3375 28.1773 31.2459 28.213 31.1158C27.4516 31.0833 27.2344 31.0892 26.4759 31.1217C26.4551 31.3286 26.5057 31.4617 26.6008 31.5799C26.6336 31.6213 26.6693 31.6627 26.7109 31.7012C26.9637 31.6154 27.2106 31.5474 27.4545 31.4942C27.6449 31.4528 27.8293 31.4233 28.0048 31.4055ZM27.9929 31.6243C27.9542 31.6805 27.5884 31.7958 27.2017 31.849C27.0827 31.8874 26.9637 31.9259 26.8477 31.9672C26.9905 32.3132 27.7074 32.6679 27.9929 32.4225C27.6717 32.3309 28.0435 31.5474 27.9929 31.6243ZM37.315 27.843C37.1603 27.9849 37.0235 28.1445 36.9015 28.3189C36.6487 28.6796 36.4761 29.1202 36.4375 29.6967C36.4761 29.6819 36.5118 29.6641 36.5475 29.6494C37.9545 29.1054 38.8766 27.0861 38.6297 25.6611C37.8176 26.1578 36.9372 26.5894 36.3274 27.293C36.2084 27.429 36.0954 27.5739 36.0002 27.7336C36.024 27.7424 36.0538 27.7454 36.0835 27.7483C36.3899 27.7779 36.9699 27.4557 37.315 27.843ZM33.5374 31.37C33.6474 31.6125 33.7456 31.9081 33.817 31.8904C33.9062 31.8697 34.3524 31.5356 34.4416 31.2725C34.4713 31.1956 34.4684 31.1217 34.4148 31.0685C34.1769 30.829 33.5433 30.7817 33.341 31.0833C33.4095 31.1158 33.4749 31.234 33.5374 31.37ZM28.5581 31.4942C28.5551 31.4972 28.5491 31.4972 28.5462 31.4972C28.5402 31.5001 28.5313 31.5001 28.5253 31.5031C28.4302 31.71 28.3766 31.917 28.3677 32.118C28.3261 33.005 29.1202 33.7116 30.5153 33.4041C31.0834 33.8121 31.2738 34.6162 32.1602 34.7109C32.9871 34.7996 33.4808 34.0368 34.2453 33.9481C34.7123 33.8919 35.1257 34.226 35.563 34.1669C36.5029 34.0338 37.1216 32.8808 36.7676 31.8756C36.3334 31.5504 35.7385 31.3819 35.1168 31.2459C35.0811 31.237 35.0484 31.2311 35.0127 31.2222C35.0008 31.2311 34.9859 31.2399 34.974 31.2518C34.4059 31.6834 33.7337 32.0086 33.8051 33.0759C34.0311 33.4898 34.4892 33.2533 34.7926 33.4011C34.4059 33.9392 33.6742 33.206 33.3678 32.9665C32.8681 33.6081 31.0477 33.2149 31.3927 32.4225C32.0442 33.1971 33.4095 33.1114 33.5879 32.3132C33.698 31.9643 33.6206 31.6598 33.4184 31.4055C33.3172 31.2784 33.1834 31.1631 33.0257 31.0626C31.9787 30.3974 29.8639 30.3264 28.796 31.1158C28.7633 31.1394 28.7306 31.1631 28.6979 31.1897C28.6681 31.237 28.6443 31.2813 28.6175 31.3286C28.6265 31.3286 28.6354 31.3286 28.6413 31.3346C28.68 31.3612 28.6562 31.4469 28.5581 31.4942ZM28.8674 27.7513C28.1862 27.7631 28.3112 28.6057 26.8953 28.5289C26.6901 28.721 26.5533 29.2768 26.4551 29.1911C26.3986 29.741 26.2945 30.4299 26.3926 30.764C26.818 30.894 27.9959 30.4742 28.5402 30.7876C28.7276 29.8534 32.2762 30.0692 32.9544 30.7048C32.9544 30.693 32.9514 30.6841 32.9514 30.6723C33.8913 30.424 34.5665 30.7758 34.9264 30.9236C35.09 30.6693 36.1579 30.9473 36.4375 31.0034C36.4494 30.6664 36.3036 30.4831 36.2174 30.2407C35.6998 30.1815 34.7926 30.35 34.7926 30.35C34.7926 30.35 35.4381 29.7558 36.1103 29.8031C36.1609 29.2887 36.2084 28.8422 36.2679 28.4816C36.2888 28.3692 36.3066 28.2628 36.3274 28.1682C36.3007 28.1623 36.2769 28.1652 36.2531 28.1623C35.9259 28.1416 35.8812 28.4047 35.56 28.3869C35.328 28.1356 35.7266 27.8843 35.3399 27.7336C35.7444 27.2783 35.5213 27.429 35.4559 27.1068C35.4559 27.095 35.4529 27.089 35.4499 27.0802C35.444 27.0861 35.4381 27.0891 35.4291 27.095C35.2477 27.2664 35.0395 27.4084 34.6825 27.4054C34.8253 26.9087 33.6593 26.4357 33.0376 26.0986C32.7848 25.9626 32.6301 25.9567 32.5558 25.9715C32.5974 25.9478 32.6569 25.9035 32.7461 25.8118C32.4279 25.8532 31.8419 26.1193 32.175 25.6108C30.8008 26.2849 29.6675 26.4859 28.9775 25.5546C28.9566 25.664 28.9596 25.7498 28.9745 25.8237C29.0013 25.8739 29.0191 25.9331 29.037 25.9952C29.1173 26.1489 29.2303 26.2701 29.1976 26.5362C29.0548 26.6751 28.793 26.6751 28.6503 26.5362C28.686 27.3078 28.8347 27.1275 28.8674 27.7513ZM31.9192 35.9289C32.0888 35.6481 32.3743 35.4411 32.7551 35.3702C31.6545 35.0035 30.4677 34.7197 29.1708 34.5453C28.9804 34.5187 28.7841 34.498 28.5878 34.4773C28.2904 34.4448 27.9899 34.4182 27.6806 34.3975C27.5378 34.3886 27.395 34.3797 27.2523 34.3709C27.2255 34.3709 27.1987 34.3709 27.1749 34.3679C26.9399 34.359 26.705 34.3472 26.464 34.3413C26.702 34.2792 26.9608 34.2378 27.2374 34.2083C27.2523 34.2083 27.2671 34.2053 27.279 34.2053C27.3831 34.1964 27.4902 34.1876 27.5973 34.1816C28.0494 34.155 28.5343 34.1669 29.0251 34.2083C29.2184 34.226 29.4147 34.2467 29.6081 34.2733C30.1167 34.3413 30.6194 34.4389 31.0953 34.5601C30.8573 34.3649 30.667 34.1136 30.5807 33.7707C30.3279 33.6879 30.0245 33.7441 29.7151 33.8623C28.2279 33.7116 28.0583 32.5999 28.0583 32.5999C28.0346 32.6029 28.0048 32.6295 27.9691 32.6679C27.1422 32.6354 26.9518 32.4078 26.4789 32.1092C26.3956 32.1417 26.3123 32.1772 26.229 32.2126C26.2142 32.2185 26.1963 32.2274 26.1785 32.2333C25.8424 32.3811 25.5033 32.5438 25.1642 32.73C24.8905 32.8808 24.6169 33.0464 24.3432 33.2208C24.257 33.277 24.1707 33.3272 24.0844 33.3864C24.1112 33.3509 24.1439 33.3154 24.1737 33.2799C24.3164 33.1055 24.489 32.937 24.6883 32.7773C25.069 32.4698 25.539 32.1949 26.0297 31.9732C26.0654 31.9554 26.1041 31.9377 26.1398 31.9229C26.2082 31.8933 26.2766 31.8638 26.348 31.8372C26.348 31.5592 26.1011 31.5267 26.1279 31.2222C25.9703 31.234 25.8245 31.2547 25.6847 31.2813C24.8102 31.4439 24.2183 31.8904 23.3854 32.0973C23.9654 31.6125 24.7537 31.1779 25.7055 30.962C25.8067 30.9384 25.9108 30.9147 26.0178 30.897C25.9762 30.0544 26.0119 28.9605 26.8953 28.3899C26.8715 28.3456 26.8567 28.3071 26.8329 28.2628C26.4372 27.4823 26.2082 26.8791 26.1487 26.2376C25.3188 26.4504 23.5579 25.9804 21.1843 25.8917C19.0337 26.0898 11.7968 27.4557 10.5713 38.9505C9.51539 41.2329 8.18579 44.8605 8.41483 48.2368C8.48027 49.2006 9.18225 51.4386 10.1906 52.4557C13.4417 55.3175 13.2157 54.5193 12.2608 52.6271C11.9515 52.0181 14.9557 54.1468 12.8409 51.8496C15.3722 52.701 12.7576 51.0543 11.8801 49.9486C11.0026 48.8428 9.8991 42.312 12.7011 39.3437C13.0461 39.323 13.2484 39.4531 13.3317 39.6807C13.3465 39.7871 13.3614 39.8906 13.3733 39.9911C13.3555 40.4376 13.0788 41.0584 12.5999 41.7C12.4691 43.6453 14.3846 43.5892 13.9414 45.1206C14.3846 45.5109 14.7713 44.958 15.4703 45.0083C18.0046 45.0053 13.412 42.4509 15.6012 40.275C16.4013 39.5802 18.0046 38.1729 18.3139 37.014C18.4002 36.6917 18.3794 36.3635 18.3139 36.0442C18.1146 35.0715 17.4246 34.1757 17.2015 33.5283C17.2193 33.5549 17.2372 33.5756 17.258 33.5963C17.609 34.3502 18.5459 35.6008 18.7541 35.9319C18.7779 35.9674 18.7958 35.9969 18.7988 36.0088C21.2111 36.2778 22.8857 36.2512 24.0458 36.0472C24.4414 36.606 24.9827 37.1204 25.7263 37.4042C26.4402 37.6792 27.3474 37.7353 28.5045 37.4042C28.6354 37.3658 28.7722 37.3273 28.912 37.2771C28.9537 37.0849 30.1792 36.059 31.7021 36.5823C31.714 36.5853 31.7229 36.5882 31.7348 36.5941C31.7348 36.5675 31.7408 36.5439 31.7408 36.5173C31.7527 36.3014 31.8151 36.1004 31.9192 35.9289ZM16.7434 39.8285V39.7132C16.318 40.0207 15.9284 40.3075 15.5625 40.9372C15.0331 41.8508 15.7529 43.2699 16.7434 44.8457V39.8285ZM13.7362 44.8545C13.7005 43.9144 12.4453 43.397 12.3114 42.4568C12.1538 41.36 13.0907 40.8929 12.9688 39.8404C12.829 39.8344 12.8171 39.6984 12.6386 39.731C11.2882 42.3474 10.8896 47.7342 12.7516 50.1969C13.4953 51.1814 15.4376 52.4557 16.4876 53.1416V48.4082C16.2615 48.5028 16.0593 48.6448 15.8808 48.8192C15.1045 48.9936 13.9087 48.6241 13.519 48.1244C12.6148 46.9625 13.7838 46.1406 13.7362 44.8545ZM16.4876 53.2214C15.7023 52.6863 14.8843 52.1955 13.6291 52.3758C13.5309 52.701 13.9712 53.041 13.7392 53.1386C13.2751 53.1652 13.0312 52.973 12.6416 52.9228C12.7516 53.5052 13.0877 53.86 13.519 54.1202C13.3257 54.1468 13.2692 54.3094 13.3019 54.5577C13.3495 54.5961 13.403 54.6316 13.4596 54.6641C14.2151 55.1254 15.5774 55.0544 16.4876 54.6198V53.2214ZM18.8791 41.1471V43.3586H19.1914C19.587 43.3586 19.6435 43.2787 19.6435 42.9772V41.5078C19.6435 41.2003 19.5751 41.1471 19.1914 41.1471H18.8791ZM28.2695 64.6748L28.329 64.8049H23.9476L23.4033 63.5395L20.7262 57.3191V64.8049H16.4906V63.3739C6.87999 59.8764 0.00297489 50.6965 5.89341e-07 39.9468C-0.00297371 26.1962 11.2525 15.003 25.0868 15C31.7913 15 38.0913 17.5928 42.8326 22.2996C46.6073 26.0513 49.0285 30.7876 49.8584 35.923H51.1047V37.3983H50.0577L48.7638 37.4013L34.0817 37.4042C33.8943 37.5875 33.6653 37.7294 33.3678 37.7649C33.0852 37.7974 32.8592 37.7472 32.6539 37.6585C32.4993 37.5905 32.3565 37.5047 32.2137 37.416C32.2078 37.4131 32.1988 37.4072 32.1929 37.4042H29.7032C29.5456 37.5018 29.385 37.5934 29.2005 37.6555C27.7966 38.1256 25.9018 38.0872 24.7775 37.4042L18.6887 37.4072C17.9629 38.8351 17.3204 39.2934 16.7434 39.7132H18.766C20.8482 39.7132 21.7792 39.9823 21.7792 41.5817V42.9683C21.7792 44.5086 20.8631 44.7925 19.0605 44.7925H18.8821V46.7822H17.3859C17.3889 47.2286 17.2491 47.607 16.9189 47.9115C16.9338 47.8376 16.9457 47.7696 16.9605 47.6957C17.026 47.3469 17.0498 47.0483 17.0438 46.7822C17.0438 46.6462 17.0349 46.5161 17.02 46.4008C16.9695 46.0608 16.8653 45.8065 16.7434 45.6114C16.5352 45.2803 16.2734 45.1354 16.1515 45.0704C15.9343 45.1472 16.1782 45.6794 15.9314 45.7267C15.6726 45.6912 15.7261 45.3483 15.3811 45.3985C15.1312 45.5109 15.4346 46.179 15.1639 46.2707C14.8962 46.2086 14.92 45.8597 14.8338 45.6173C14.3787 45.5877 14.4054 45.7592 14.0664 45.6173C13.3673 46.179 13.406 48.2959 14.6137 48.2338C14.9081 48.1274 14.7297 47.5479 14.9438 47.3616C15.4316 47.5538 15.0212 48.2604 14.9438 48.562C15.506 48.6477 15.7767 48.4437 16.1515 48.3432C16.3032 47.7489 15.8986 47.2789 16.4787 47.1429C16.5471 47.403 16.6363 47.6395 16.5887 48.015C16.6542 47.9855 16.8475 47.8169 16.9248 47.7519C16.9338 47.746 16.9486 47.7342 16.9516 47.7312C16.9427 47.8672 16.7612 48.1806 16.7523 48.3195C16.7047 48.3314 16.6601 48.3491 16.6125 48.3639H20.7233L20.7262 55.4535L23.4598 48.3639L27.7698 48.3609L24.3075 56.0892L27.7103 63.4597L28.2695 64.6748ZM37.425 46.7112L36.1817 44.0622V46.7792H34.2423V44.0622L32.999 46.7142L32.9692 46.7792H30.7384L30.8187 46.6166L32.5944 43.0393L31.0685 39.8729L30.9882 39.7103H33.1774L33.2072 39.7812L34.2423 42.2144L34.2393 39.8226V39.7103H36.1787V42.2114L37.2138 39.7783L37.2436 39.7103H39.4298L39.3525 39.8729L37.8295 43.0393L39.6023 46.6136L39.6826 46.7792H37.4548L37.425 46.7112Z" fill="#FCB814"/>
<g clip-path="url(#clip0_1_323)">
<path d="M207.694 24.643V46.9896L194.276 55.1765V24.643H189.824V60.4565H194.153L194.167 60.4798L194.205 60.4565H194.276V60.4133L207.694 52.2269V69.3044H212.145V24.643H207.694Z" fill="white"/>
<path d="M109.062 51.4399H127.122V46.9738H109.062V29.1092H127.122V24.6242H109.062H104.61V29.1092V69.2856H104.642H109.062H135.993V64.8384H109.062V51.4399Z" fill="white"/>
<path d="M100.243 24.6138H95.7921V24.6431H82.1938H77.7424V29.0904V55.9404V60.3723V60.4065H82.1938V60.3723H100.254V55.9404H82.1938V29.0904H95.7921V37.9383H100.243V29.0904H100.254V24.6431H100.243V24.6138Z" fill="white"/>
<path d="M145.087 29.0061V60.3535H149.538V29.0061V24.54H145.087H136.056H131.542V29.0061V55.9062H113.672V60.3723H131.542H135.039H136.056V29.0061H145.087Z" fill="white"/>
<path d="M185.341 15.7109H176.374V20.177H185.341V15.7109Z" fill="white"/>
<path d="M171.923 29.0904H180.974V51.44H171.923V29.0904ZM158.473 29.0904H167.472V51.44H158.473V29.0904ZM185.341 51.44V29.0904V24.6431V24.6243H154.022V24.6431V29.0904V51.44V55.7503V55.9061H167.472V60.3534H171.923V55.9061H180.974H185.341V51.44Z" fill="white"/>
<path d="M145.22 64.9189L143.885 66.7728V64.9189H143.089V69.2004H143.885V67.0706L145.22 69.2004H146.175L144.601 66.8517L146.175 64.9189H145.22Z" fill="white"/>
<mask id="mask0_1_323" style="mask-type:luminance" maskUnits="userSpaceOnUse" x="60" y="0" width="171" height="80">
<path d="M60 9.69045e-06H231V80H60V9.69045e-06Z" fill="white"/>
</mask>
<g mask="url(#mask0_1_323)">
<path d="M151.795 67.7922C151.664 68.0199 151.487 68.2011 151.265 68.335C151.043 68.469 150.804 68.536 150.548 68.536C150.293 68.536 150.054 68.469 149.832 68.3355C149.611 68.202 149.434 68.0214 149.304 67.7941C149.173 67.5674 149.108 67.3217 149.108 67.0587C149.108 66.7907 149.173 66.5456 149.302 66.3233C149.432 66.1005 149.609 65.9258 149.834 65.7983C150.059 65.6702 150.307 65.6067 150.578 65.6067C150.828 65.6067 151.061 65.6732 151.279 65.8057C151.498 65.9382 151.671 66.1159 151.8 66.3387C151.928 66.5615 151.993 66.8017 151.993 67.0587C151.993 67.3197 151.927 67.5644 151.795 67.7922ZM151.661 65.1353C151.312 64.9373 150.928 64.8385 150.509 64.8385C150.115 64.8385 149.75 64.9398 149.411 65.1422C149.073 65.3447 148.804 65.6181 148.604 65.9625C148.405 66.3074 148.305 66.6791 148.305 67.0781C148.305 67.48 148.406 67.8522 148.606 68.1941C148.807 68.536 149.08 68.8065 149.424 69.006C149.768 69.2049 150.143 69.3047 150.547 69.3047C150.95 69.3047 151.323 69.2049 151.669 69.006C152.014 68.8065 152.287 68.536 152.487 68.1941C152.688 67.8522 152.788 67.48 152.788 67.0781C152.788 66.6682 152.688 66.291 152.487 65.9476C152.286 65.6042 152.011 65.3333 151.661 65.1353Z" fill="white"/>
<path d="M157.582 66.6328H156.053V64.9188H155.257V69.1998H156.053V67.4069H157.582V69.1998H158.384V64.9188H157.582V66.6328Z" fill="white"/>
<path d="M162.333 65.8062C162.551 65.6732 162.786 65.6067 163.038 65.6067C163.247 65.6067 163.455 65.6559 163.663 65.7541C163.761 65.8008 163.846 65.8509 163.917 65.9055C163.988 65.9596 164.071 66.037 164.165 66.1382H165.071C164.988 65.9725 164.917 65.8454 164.858 65.7571C164.798 65.6688 164.725 65.5824 164.636 65.4981C164.427 65.2896 164.184 65.1274 163.904 65.0117C163.624 64.8961 163.335 64.8381 163.037 64.8381C162.642 64.8381 162.273 64.9383 161.932 65.1378C161.591 65.3373 161.321 65.6077 161.121 65.9491C160.921 66.2905 160.821 66.6607 160.821 67.0587C160.821 67.4607 160.921 67.8343 161.123 68.1792C161.323 68.5241 161.595 68.798 161.939 69.0005C162.282 69.203 162.653 69.3042 163.05 69.3042C163.243 69.3042 163.434 69.2794 163.622 69.2293C163.811 69.1791 163.989 69.1062 164.159 69.0104C164.328 68.9147 164.483 68.799 164.624 68.6641C164.716 68.5698 164.789 68.4814 164.845 68.3986C164.901 68.3167 164.968 68.1956 165.047 68.0353H164.122C164.014 68.1425 163.923 68.2229 163.849 68.276C163.775 68.3291 163.684 68.3792 163.578 68.4259C163.404 68.4993 163.227 68.536 163.046 68.536C162.795 68.536 162.561 68.469 162.342 68.3355C162.123 68.2021 161.949 68.0229 161.819 67.7981C161.689 67.5733 161.624 67.3307 161.624 67.0706C161.624 66.8086 161.688 66.5655 161.815 66.3417C161.943 66.1179 162.115 65.9392 162.333 65.8062Z" fill="white"/>
<path d="M167.068 65.6872H167.859V69.2001H168.654V65.6872H169.455V64.9185H167.068V65.6872Z" fill="white"/>
<path d="M173.574 66.5621C173.503 66.6578 173.408 66.7243 173.289 66.7611C173.196 66.7928 173.043 66.8087 172.829 66.8087H172.756H172.67H172.53V65.6872H172.67H172.762H172.829C173.016 65.6872 173.161 65.6991 173.264 65.7229C173.391 65.7567 173.493 65.8197 173.568 65.9115C173.643 66.0033 173.681 66.111 173.681 66.2351C173.681 66.3571 173.645 66.4663 173.574 66.5621ZM173.906 65.1438C173.737 65.0292 173.558 64.9622 173.368 64.9428C173.232 64.927 173.024 64.919 172.744 64.919H171.734V69.2001H172.53V67.5769H172.682C173.159 67.5769 173.483 67.5466 173.655 67.4861C173.776 67.4394 173.878 67.3824 173.962 67.3149C174.121 67.1928 174.247 67.035 174.339 66.842C174.43 66.6489 174.476 66.4445 174.476 66.2291C174.476 66.0098 174.425 65.8038 174.325 65.6113C174.223 65.4187 174.084 65.2629 173.906 65.1438Z" fill="white"/>
<path d="M178.23 67.023L177.323 64.9189H176.448L177.808 67.7792L177.078 69.2H177.955L180.073 64.9189H179.197L178.23 67.023Z" fill="white"/>
<path d="M184.403 64.9188L183.068 66.7727V64.9188H182.273V69.2003H183.068V67.0705L184.403 69.2003H185.359L183.784 66.8516L185.359 64.9188H184.403Z" fill="white"/>
<path d="M187.361 65.6872H188.152V69.2001H188.947V65.6872H189.748V64.9185H187.361V65.6872Z" fill="white"/>
<path d="M195.29 67.7922C195.158 68.0199 194.981 68.2011 194.76 68.335C194.538 68.469 194.298 68.536 194.042 68.536C193.787 68.536 193.549 68.469 193.327 68.3355C193.105 68.202 192.929 68.0214 192.798 67.7941C192.668 67.5674 192.602 67.3217 192.602 67.0587C192.602 66.7907 192.667 66.5456 192.797 66.3233C192.926 66.1005 193.103 65.9258 193.328 65.7983C193.553 65.6702 193.801 65.6067 194.072 65.6067C194.322 65.6067 194.556 65.6732 194.774 65.8057C194.992 65.9382 195.166 66.1159 195.294 66.3387C195.423 66.5615 195.487 66.8017 195.487 67.0587C195.487 67.3197 195.421 67.5644 195.29 67.7922ZM195.156 65.1353C194.807 64.9373 194.422 64.8385 194.004 64.8385C193.61 64.8385 193.244 64.9398 192.905 65.1422C192.567 65.3447 192.298 65.6181 192.099 65.9625C191.899 66.3074 191.799 66.6791 191.799 67.0781C191.799 67.48 191.9 67.8522 192.101 68.1941C192.301 68.536 192.574 68.8065 192.919 69.006C193.263 69.2049 193.637 69.3047 194.041 69.3047C194.444 69.3047 194.818 69.2049 195.163 69.006C195.508 68.8065 195.781 68.536 195.982 68.1941C196.182 67.8522 196.283 67.48 196.283 67.0781C196.283 66.6682 196.182 66.291 195.981 65.9476C195.78 65.6042 195.505 65.3333 195.156 65.1353Z" fill="white"/>
<path d="M200.591 66.5621C200.52 66.6578 200.425 66.7243 200.306 66.7611C200.214 66.7928 200.06 66.8087 199.846 66.8087H199.773H199.687H199.547V65.6872H199.687H199.779H199.846C200.033 65.6872 200.178 65.6991 200.281 65.7229C200.408 65.7567 200.51 65.8197 200.585 65.9115C200.66 66.0033 200.698 66.111 200.698 66.2351C200.698 66.3571 200.662 66.4663 200.591 66.5621ZM200.923 65.1438C200.754 65.0292 200.575 64.9622 200.385 64.9428C200.249 64.927 200.041 64.919 199.761 64.919H198.751V69.2001H199.547V67.5769H199.699C200.176 67.5769 200.5 67.5466 200.672 67.4861C200.793 67.4394 200.895 67.3824 200.979 67.3149C201.139 67.1928 201.264 67.035 201.356 66.842C201.447 66.6489 201.493 66.4445 201.493 66.2291C201.493 66.0098 201.442 65.8038 201.342 65.6113C201.24 65.4187 201.101 65.2629 200.923 65.1438Z" fill="white"/>
</g>
</g>
<defs>
<clipPath id="clip0_1_323">
<rect width="152" height="80" fill="white" transform="translate(60)"/>
</clipPath>
</defs>
</svg>
