<svg width="58" height="70" viewBox="0 0 58 70" fill="none" xmlns="http://www.w3.org/2000/svg">
<path d="M35.9276 25.6782C35.9365 25.6753 35.9454 25.6753 35.9514 25.6723C35.9514 25.6546 35.9484 25.6368 35.9484 25.6161C35.9395 25.6368 35.9365 25.6546 35.9276 25.6782ZM40.3179 27.8571C42.2186 27.8926 43.8367 28.209 45.2526 28.7263C45.44 28.75 45.5233 28.6051 45.2526 28.617C44.1699 27.937 41.7219 27.4935 40.3179 27.8571ZM33.9347 23.7329C33.9347 24.2798 35.8592 24.7558 35.9484 25.6161C36.3351 24.54 34.7646 24.2 33.9347 23.7329ZM40.6451 28.5105C41.1359 28.6436 41.6237 29.3531 41.9628 29.2733C41.5821 29.0309 41.0943 28.3213 40.6451 28.5105ZM54.997 34.8197V34.7044H52.8673C52.9773 34.6896 53.0815 34.6689 53.1796 34.6423C53.8965 34.4501 54.2772 33.983 54.3545 33.2025L54.3664 33.0783H53.373L53.364 33.1818C53.3462 33.3325 53.3016 33.4833 53.1499 33.5986C52.9982 33.7139 52.7453 33.7908 52.3111 33.7908C52.1356 33.7908 51.9958 33.776 51.8708 33.7524C51.38 33.6607 51.2789 33.4094 51.2581 33.1818L51.2492 33.0783H50.2438L50.2587 33.2054C50.3509 34.1249 50.8893 34.6216 51.8976 34.725C52.0285 34.7398 52.1653 34.7487 52.3111 34.7487C52.4033 34.7487 52.4836 34.7398 52.5669 34.7339L52.549 34.7842L51.7995 37.108L51.3295 38.5566L51.4455 34.8226L51.4485 34.7073H49.4823V34.8197L49.4853 41.6639V41.7763H51.9482L51.9749 41.6964L52.8465 39.0149L53.1618 38.0481L53.0368 41.658L53.0339 41.7763H53.1528L54.884 41.7733H55V41.661L54.997 34.8197ZM28.3218 39.9787V39.1568C28.3218 38.8405 28.2564 38.7843 27.8816 38.7843H27.5722V40.3483H27.8816C28.2564 40.3483 28.3218 40.2921 28.3218 39.9787ZM30.4605 39.2012V39.9048C30.4605 41.5102 29.5324 41.7822 27.4562 41.7822H25.4366V41.6698L25.4336 34.8256V34.7132H25.5466L27.4562 34.7103H27.5693V34.8256L27.5722 37.3504H27.7715C29.5146 37.3504 30.4605 37.6461 30.4605 39.2012ZM33.3606 41.7792V41.6669L33.3576 34.8256V34.7103H31.2219V41.7822H31.3379L33.2446 41.7792H33.3606ZM39.027 55.9378L39.024 47.2457C39.024 46.3233 38.8069 46.0602 37.9116 46.0602C37.0162 46.0602 36.7723 46.3026 36.7723 47.2457L36.7753 55.9408C36.7753 56.4079 36.8378 56.7006 37.0192 56.875C37.1917 57.0435 37.4713 57.1027 37.9116 57.1027C38.8039 57.1027 39.024 56.8632 39.027 55.9526C39.027 55.9467 39.027 55.9437 39.027 55.9378ZM43.3817 54.699L43.3846 55.3879C43.3846 59.3171 42.4417 60 37.9145 60C35.8354 60 34.5088 59.8226 33.6759 59.255C33.2773 58.98 32.9858 58.6223 32.7895 58.1404C32.5188 57.4722 32.4177 56.5794 32.4177 55.3908L32.4147 47.775C32.4147 44.0646 33.4082 43.1628 37.9086 43.1628C42.3406 43.1599 43.3817 44.0616 43.3817 47.772V54.699ZM46.5465 41.7792H48.5126V41.6639L48.5097 34.8197V34.7073H46.0914L46.0646 34.7871L44.8421 38.5626L44.9581 34.8256L44.9611 34.7073H42.995V34.8226L42.9979 41.6639V41.7792H45.4638L45.4876 41.6994L46.6744 38.0481L46.5525 41.661L46.5465 41.7792ZM54.6609 43.355L51.7132 43.358H44.7112V46.2553H47.5697V50.6457L47.5727 59.799H51.8084L51.8054 46.2553L54.6609 46.2524V43.355ZM19.4906 56.9992L19.4876 49.8001C16.7957 51.6213 10.2488 47.5887 11.0341 41.5989C11.2661 38.1575 12.7771 35.2395 13.5535 31.5705C14.2436 28.3124 16.0848 24.9864 17.8308 23.2835C19.44 21.7077 22.4294 20.2649 25.508 20.5546C26.6888 20.667 27.5574 21.2849 29.235 20.9892C29.3153 19.7564 29.4254 17.7194 30.5527 17.1754C31.2755 18.4555 31.9596 19.7741 32.965 20.7705C34.0864 20.7586 34.8895 20.4305 35.7075 20.1171C35.7104 20.3181 35.7878 20.4778 35.9127 20.6138C35.9157 20.6197 35.9216 20.6256 35.9246 20.6315C36.3619 21.0868 37.3375 21.2553 37.7926 21.752C39.0984 21.2997 40.5737 20.4512 42.0699 20.5517C42.0818 22.4202 41.2162 24.3508 39.6576 25.0219C39.8777 26.2252 40.4399 27.5438 39.9878 28.4011C41.3025 29.7079 41.7814 30.4677 41.5404 30.926L51.5555 30.923C50.7346 26.1306 48.4561 21.7136 44.9254 18.2042C40.425 13.737 34.4463 11.2772 28.0868 11.2772C14.9604 11.2831 4.28201 21.8998 4.28498 34.9468C4.28795 44.9781 10.6058 53.5637 19.4906 56.9992ZM41.4125 30.4736C40.66 29.3945 40.2614 28.9215 39.8747 28.6879C39.3155 30.0124 36.6474 29.0693 36.5284 29.6399C37.1679 29.7996 37.6915 30.4204 37.7807 30.926C37.8194 31.1477 37.7807 31.3458 37.632 31.4759C38.2388 31.535 40.3923 31.3547 41.1657 30.926C41.4006 30.7959 41.5137 30.6481 41.4125 30.4736ZM37.3553 31.127C37.3464 31.059 37.3345 30.994 37.3196 30.926C37.2036 30.3583 36.924 29.9533 36.2578 29.9296C36.2607 29.9976 36.2459 30.0509 36.228 30.1011L35.9573 29.9355L35.9157 30.1455L35.9038 30.2194C35.9841 30.2637 36.0704 30.3051 36.1417 30.3495C36.1477 30.3524 36.1566 30.3583 36.1655 30.3613C36.5314 30.3435 36.4184 30.5416 36.1655 30.5091C36.1566 30.5062 36.1507 30.5032 36.1417 30.5002C36.0555 30.4707 35.9692 30.4411 35.88 30.4115C35.88 30.4529 35.883 30.4914 35.8859 30.5298L35.9157 30.6421C35.6777 30.7042 35.4546 30.7811 35.3029 30.926C35.2464 30.9821 35.1959 31.0472 35.1631 31.127C35.3208 31.2216 35.5082 31.2926 35.4903 31.5646C35.2107 31.5084 35.1066 31.4197 34.943 31.674C35.1393 31.9755 35.3357 32.2741 35.7045 32.4042C35.9038 32.4752 36.1507 32.4959 36.4779 32.4367C36.4808 32.4279 36.4808 32.416 36.4838 32.4042C36.5225 32.2002 36.3589 31.7952 36.5879 31.7833C36.8764 31.7508 36.6742 32.2061 37.0281 32.1086C37.3702 31.736 36.8735 31.535 36.9181 31.127C37.2155 31.1181 37.1382 31.3103 37.3553 31.127ZM31.5402 21.208C31.2011 19.9811 31.097 18.5206 30.4426 17.61C29.6008 18.8399 29.0089 21.7786 30.0708 23.1179C30.1511 23.2155 30.2374 23.3101 30.3326 23.3899C30.743 23.2894 30.9096 22.9464 31.3201 22.8459V22.843C31.4331 21.9501 30.4545 21.6249 30.5527 21.0986C30.752 21.0927 30.9245 21.6574 31.1 21.3174C30.9751 21.2819 30.5854 20.9804 30.8799 20.8828C31.2041 20.8592 31.2071 21.3706 31.4272 21.2878C31.4272 21.2849 31.4302 21.2849 31.4302 21.2849C31.4629 21.2731 31.4986 21.2494 31.5402 21.208ZM31.0048 26.4055C31.1 26.3375 31.1773 26.2459 31.213 26.1158C30.4516 26.0833 30.2344 26.0892 29.4759 26.1217C29.4551 26.3286 29.5057 26.4617 29.6008 26.5799C29.6336 26.6213 29.6693 26.6627 29.7109 26.7012C29.9637 26.6154 30.2106 26.5474 30.4545 26.4942C30.6449 26.4528 30.8293 26.4233 31.0048 26.4055ZM30.9929 26.6243C30.9542 26.6805 30.5884 26.7958 30.2017 26.849C30.0827 26.8874 29.9637 26.9259 29.8477 26.9672C29.9905 27.3132 30.7074 27.6679 30.9929 27.4225C30.6717 27.3309 31.0435 26.5474 30.9929 26.6243ZM40.315 22.843C40.1603 22.9849 40.0235 23.1445 39.9015 23.3189C39.6487 23.6796 39.4761 24.1202 39.4375 24.6967C39.4761 24.6819 39.5118 24.6641 39.5475 24.6494C40.9545 24.1054 41.8766 22.0861 41.6297 20.6611C40.8176 21.1578 39.9372 21.5894 39.3274 22.293C39.2084 22.429 39.0954 22.5739 39.0002 22.7336C39.024 22.7424 39.0538 22.7454 39.0835 22.7483C39.3899 22.7779 39.9699 22.4557 40.315 22.843ZM36.5374 26.37C36.6474 26.6125 36.7456 26.9081 36.817 26.8904C36.9062 26.8697 37.3524 26.5356 37.4416 26.2725C37.4713 26.1956 37.4684 26.1217 37.4148 26.0685C37.1769 25.829 36.5433 25.7817 36.341 26.0833C36.4095 26.1158 36.4749 26.234 36.5374 26.37ZM31.5581 26.4942C31.5551 26.4972 31.5491 26.4972 31.5462 26.4972C31.5402 26.5001 31.5313 26.5001 31.5253 26.5031C31.4302 26.71 31.3766 26.917 31.3677 27.118C31.3261 28.005 32.1202 28.7116 33.5153 28.4041C34.0834 28.8121 34.2738 29.6162 35.1602 29.7109C35.9871 29.7996 36.4808 29.0368 37.2453 28.9481C37.7123 28.8919 38.1257 29.226 38.563 29.1669C39.5029 29.0338 40.1216 27.8808 39.7676 26.8756C39.3334 26.5504 38.7385 26.3819 38.1168 26.2459C38.0811 26.237 38.0484 26.2311 38.0127 26.2222C38.0008 26.2311 37.9859 26.2399 37.974 26.2518C37.4059 26.6834 36.7337 27.0086 36.8051 28.0759C37.0311 28.4898 37.4892 28.2533 37.7926 28.4011C37.4059 28.9392 36.6742 28.206 36.3678 27.9665C35.8681 28.6081 34.0477 28.2149 34.3927 27.4225C35.0442 28.1971 36.4095 28.1114 36.5879 27.3132C36.698 26.9643 36.6206 26.6598 36.4184 26.4055C36.3172 26.2784 36.1834 26.1631 36.0257 26.0626C34.9787 25.3974 32.8639 25.3264 31.796 26.1158C31.7633 26.1394 31.7306 26.1631 31.6979 26.1897C31.6681 26.237 31.6443 26.2813 31.6175 26.3286C31.6265 26.3286 31.6354 26.3286 31.6413 26.3346C31.68 26.3612 31.6562 26.4469 31.5581 26.4942ZM31.8674 22.7513C31.1862 22.7631 31.3112 23.6057 29.8953 23.5289C29.6901 23.721 29.5533 24.2768 29.4551 24.1911C29.3986 24.741 29.2945 25.4299 29.3926 25.764C29.818 25.894 30.9959 25.4742 31.5402 25.7876C31.7276 24.8534 35.2762 25.0692 35.9544 25.7048C35.9544 25.693 35.9514 25.6841 35.9514 25.6723C36.8913 25.424 37.5665 25.7758 37.9264 25.9236C38.09 25.6693 39.1579 25.9473 39.4375 26.0034C39.4494 25.6664 39.3036 25.4831 39.2174 25.2407C38.6998 25.1815 37.7926 25.35 37.7926 25.35C37.7926 25.35 38.4381 24.7558 39.1103 24.8031C39.1609 24.2887 39.2084 23.8422 39.2679 23.4816C39.2888 23.3692 39.3066 23.2628 39.3274 23.1682C39.3007 23.1623 39.2769 23.1652 39.2531 23.1623C38.9259 23.1416 38.8812 23.4047 38.56 23.3869C38.328 23.1356 38.7266 22.8843 38.3399 22.7336C38.7444 22.2783 38.5213 22.429 38.4559 22.1068C38.4559 22.095 38.4529 22.089 38.4499 22.0802C38.444 22.0861 38.4381 22.0891 38.4291 22.095C38.2477 22.2664 38.0395 22.4084 37.6825 22.4054C37.8253 21.9087 36.6593 21.4357 36.0376 21.0986C35.7848 20.9626 35.6301 20.9567 35.5558 20.9715C35.5974 20.9478 35.6569 20.9035 35.7461 20.8118C35.4279 20.8532 34.8419 21.1193 35.175 20.6108C33.8008 21.2849 32.6675 21.4859 31.9775 20.5546C31.9566 20.664 31.9596 20.7498 31.9745 20.8237C32.0013 20.8739 32.0191 20.9331 32.037 20.9952C32.1173 21.1489 32.2303 21.2701 32.1976 21.5362C32.0548 21.6751 31.793 21.6751 31.6503 21.5362C31.686 22.3078 31.8347 22.1275 31.8674 22.7513ZM34.9192 30.9289C35.0888 30.6481 35.3743 30.4411 35.7551 30.3702C34.6545 30.0035 33.4677 29.7197 32.1708 29.5453C31.9804 29.5187 31.7841 29.498 31.5878 29.4773C31.2904 29.4448 30.9899 29.4182 30.6806 29.3975C30.5378 29.3886 30.395 29.3797 30.2523 29.3709C30.2255 29.3709 30.1987 29.3709 30.1749 29.3679C29.9399 29.359 29.705 29.3472 29.464 29.3413C29.702 29.2792 29.9608 29.2378 30.2374 29.2083C30.2523 29.2083 30.2671 29.2053 30.279 29.2053C30.3831 29.1964 30.4902 29.1876 30.5973 29.1816C31.0494 29.155 31.5343 29.1669 32.0251 29.2083C32.2184 29.226 32.4147 29.2467 32.6081 29.2733C33.1167 29.3413 33.6194 29.4389 34.0953 29.5601C33.8573 29.3649 33.667 29.1136 33.5807 28.7707C33.3279 28.6879 33.0245 28.7441 32.7151 28.8623C31.2279 28.7116 31.0583 27.5999 31.0583 27.5999C31.0346 27.6029 31.0048 27.6295 30.9691 27.6679C30.1422 27.6354 29.9518 27.4078 29.4789 27.1092C29.3956 27.1417 29.3123 27.1772 29.229 27.2126C29.2142 27.2185 29.1963 27.2274 29.1785 27.2333C28.8424 27.3811 28.5033 27.5438 28.1642 27.73C27.8905 27.8808 27.6169 28.0464 27.3432 28.2208C27.257 28.277 27.1707 28.3272 27.0844 28.3864C27.1112 28.3509 27.1439 28.3154 27.1737 28.2799C27.3164 28.1055 27.489 27.937 27.6883 27.7773C28.069 27.4698 28.539 27.1949 29.0297 26.9732C29.0654 26.9554 29.1041 26.9377 29.1398 26.9229C29.2082 26.8933 29.2766 26.8638 29.348 26.8372C29.348 26.5592 29.1011 26.5267 29.1279 26.2222C28.9703 26.234 28.8245 26.2547 28.6847 26.2813C27.8102 26.4439 27.2183 26.8904 26.3854 27.0973C26.9654 26.6125 27.7537 26.1779 28.7055 25.962C28.8067 25.9384 28.9108 25.9147 29.0178 25.897C28.9762 25.0544 29.0119 23.9605 29.8953 23.3899C29.8715 23.3456 29.8567 23.3071 29.8329 23.2628C29.4372 22.4823 29.2082 21.8791 29.1487 21.2376C28.3188 21.4504 26.5579 20.9804 24.1843 20.8917C22.0337 21.0898 14.7968 22.4557 13.5713 33.9505C12.5154 36.2329 11.1858 39.8605 11.4148 43.2368C11.4803 44.2006 12.1822 46.4386 13.1906 47.4557C16.4417 50.3175 16.2157 49.5193 15.2608 47.6271C14.9515 47.0181 17.9557 49.1468 15.8409 46.8496C18.3722 47.701 15.7576 46.0543 14.8801 44.9486C14.0026 43.8428 12.8991 37.312 15.7011 34.3437C16.0461 34.323 16.2484 34.4531 16.3317 34.6807C16.3465 34.7871 16.3614 34.8906 16.3733 34.9911C16.3555 35.4376 16.0788 36.0584 15.5999 36.7C15.4691 38.6453 17.3846 38.5892 16.9414 40.1206C17.3846 40.5109 17.7713 39.958 18.4703 40.0083C21.0046 40.0053 16.412 37.4509 18.6012 35.275C19.4013 34.5802 21.0046 33.1729 21.3139 32.014C21.4002 31.6917 21.3794 31.3635 21.3139 31.0442C21.1146 30.0715 20.4246 29.1757 20.2015 28.5283C20.2193 28.5549 20.2372 28.5756 20.258 28.5963C20.609 29.3502 21.5459 30.6008 21.7541 30.9319C21.7779 30.9674 21.7958 30.9969 21.7988 31.0088C24.2111 31.2778 25.8857 31.2512 27.0458 31.0472C27.4414 31.606 27.9827 32.1204 28.7263 32.4042C29.4402 32.6792 30.3474 32.7353 31.5045 32.4042C31.6354 32.3658 31.7722 32.3273 31.912 32.2771C31.9537 32.0849 33.1792 31.059 34.7021 31.5823C34.714 31.5853 34.7229 31.5882 34.7348 31.5941C34.7348 31.5675 34.7408 31.5439 34.7408 31.5173C34.7527 31.3014 34.8151 31.1004 34.9192 30.9289ZM19.7434 34.8285V34.7132C19.318 35.0207 18.9284 35.3075 18.5625 35.9372C18.0331 36.8508 18.7529 38.2699 19.7434 39.8457V34.8285ZM16.7362 39.8545C16.7005 38.9144 15.4453 38.397 15.3114 37.4568C15.1538 36.36 16.0907 35.8929 15.9688 34.8404C15.829 34.8344 15.8171 34.6984 15.6386 34.731C14.2882 37.3474 13.8896 42.7342 15.7516 45.1969C16.4953 46.1814 18.4376 47.4557 19.4876 48.1416V43.4082C19.2615 43.5028 19.0593 43.6448 18.8808 43.8192C18.1045 43.9936 16.9087 43.6241 16.519 43.1244C15.6148 41.9625 16.7838 41.1406 16.7362 39.8545ZM19.4876 48.2214C18.7023 47.6863 17.8843 47.1955 16.6291 47.3758C16.5309 47.701 16.9712 48.041 16.7392 48.1386C16.2751 48.1652 16.0312 47.973 15.6416 47.9228C15.7516 48.5052 16.0877 48.86 16.519 49.1202C16.3257 49.1468 16.2692 49.3094 16.3019 49.5577C16.3495 49.5961 16.403 49.6316 16.4596 49.6641C17.2151 50.1254 18.5774 50.0544 19.4876 49.6198V48.2214ZM21.8791 36.1471V38.3586H22.1914C22.587 38.3586 22.6435 38.2787 22.6435 37.9772V36.5078C22.6435 36.2003 22.5751 36.1471 22.1914 36.1471H21.8791ZM31.2695 59.6748L31.329 59.8049H26.9476L26.4033 58.5395L23.7262 52.3191V59.8049H19.4906V58.3739C9.87999 54.8764 3.00297 45.6965 3 34.9468C2.99703 21.1962 14.2525 10.003 28.0868 10C34.7913 10 41.0913 12.5928 45.8326 17.2996C49.6073 21.0513 52.0285 25.7876 52.8584 30.923H54.1047V32.3983H53.0577L51.7638 32.4013L37.0817 32.4042C36.8943 32.5875 36.6653 32.7294 36.3678 32.7649C36.0852 32.7974 35.8592 32.7472 35.6539 32.6585C35.4993 32.5905 35.3565 32.5047 35.2137 32.416C35.2078 32.4131 35.1988 32.4072 35.1929 32.4042H32.7032C32.5456 32.5018 32.385 32.5934 32.2005 32.6555C30.7966 33.1256 28.9018 33.0872 27.7775 32.4042L21.6887 32.4072C20.9629 33.8351 20.3204 34.2934 19.7434 34.7132H21.766C23.8482 34.7132 24.7792 34.9823 24.7792 36.5817V37.9683C24.7792 39.5086 23.8631 39.7925 22.0605 39.7925H21.8821V41.7822H20.3859C20.3889 42.2286 20.2491 42.607 19.9189 42.9115C19.9338 42.8376 19.9457 42.7696 19.9605 42.6957C20.026 42.3469 20.0498 42.0483 20.0438 41.7822C20.0438 41.6462 20.0349 41.5161 20.02 41.4008C19.9695 41.0608 19.8653 40.8065 19.7434 40.6114C19.5352 40.2803 19.2734 40.1354 19.1515 40.0704C18.9343 40.1472 19.1782 40.6794 18.9314 40.7267C18.6726 40.6912 18.7261 40.3483 18.3811 40.3985C18.1312 40.5109 18.4346 41.179 18.1639 41.2707C17.8962 41.2086 17.92 40.8597 17.8338 40.6173C17.3787 40.5877 17.4054 40.7592 17.0664 40.6173C16.3673 41.179 16.406 43.2959 17.6137 43.2338C17.9081 43.1274 17.7297 42.5479 17.9438 42.3616C18.4316 42.5538 18.0212 43.2604 17.9438 43.562C18.506 43.6477 18.7767 43.4437 19.1515 43.3432C19.3032 42.7489 18.8986 42.2789 19.4787 42.1429C19.5471 42.403 19.6363 42.6395 19.5887 43.015C19.6542 42.9855 19.8475 42.8169 19.9248 42.7519C19.9338 42.746 19.9486 42.7342 19.9516 42.7312C19.9427 42.8672 19.7612 43.1806 19.7523 43.3195C19.7047 43.3314 19.6601 43.3491 19.6125 43.3639H23.7233L23.7262 50.4535L26.4598 43.3639L30.7698 43.3609L27.3075 51.0892L30.7103 58.4597L31.2695 59.6748ZM40.425 41.7112L39.1817 39.0622V41.7792H37.2423V39.0622L35.999 41.7142L35.9692 41.7792H33.7384L33.8187 41.6166L35.5944 38.0393L34.0685 34.8729L33.9882 34.7103H36.1774L36.2072 34.7812L37.2423 37.2144L37.2393 34.8226V34.7103H39.1787V37.2114L40.2138 34.7783L40.2436 34.7103H42.4298L42.3525 34.8729L40.8295 38.0393L42.6023 41.6136L42.6826 41.7792H40.4548L40.425 41.7112Z" fill="#FCB814"/>
</svg>
