<svg width="58" height="70" fill="none" xmlns="http://www.w3.org/2000/svg"><path d="M35.928 25.678c.009-.003.017-.003.023-.006 0-.017-.003-.035-.003-.056-.008.02-.011.039-.02.062zm4.39 2.18c1.9.035 3.519.351 4.935.868.187.024.27-.12 0-.109-1.083-.68-3.531-1.123-4.935-.76zm-6.383-4.125c0 .547 1.924 1.023 2.013 1.883.387-1.076-1.183-1.416-2.013-1.883zm6.71 4.777c.49.134.979.843 1.318.763-.38-.242-.869-.952-1.318-.762zm14.352 6.31v-.116h-2.13c.11-.014.215-.035.313-.062.717-.192 1.097-.659 1.175-1.44l.011-.124h-.993l-.009.104c-.018.15-.062.301-.214.417-.152.115-.405.192-.839.192-.175 0-.315-.015-.44-.039-.491-.091-.592-.343-.613-.57l-.009-.104h-1.005l.015.127c.092.92.63 1.417 1.639 1.52.13.015.267.024.413.024.092 0 .173-.01.256-.015l-.018.05-.75 2.324-.47 1.449.117-3.734.003-.116h-1.967v.113l.003 6.844v.112h2.463l.027-.08.871-2.681.316-.967-.125 3.61-.003.118h.119l1.731-.003H55v-.112l-.003-6.841zm-26.675 5.159v-.822c0-.316-.066-.373-.44-.373h-.31v1.564h.31c.374 0 .44-.056.44-.37zm2.139-.778v.704c0 1.605-.929 1.877-3.005 1.877h-2.02v-.112l-.002-6.844v-.113h.113l1.91-.003h.112v.116l.003 2.524h.2c1.743 0 2.689.296 2.689 1.851zm2.9 2.578v-.112l-.003-6.841v-.116h-2.136v7.072h.116l1.907-.003h.116zm5.666 14.159l-.003-8.692c0-.923-.217-1.186-1.112-1.186-.896 0-1.14.243-1.14 1.186l.003 8.695c0 .467.063.76.244.934.173.169.452.228.893.228.892 0 1.112-.24 1.115-1.15v-.015zm4.355-1.239l.003.689c0 3.93-.943 4.612-5.47 4.612-2.08 0-3.406-.177-4.24-.745a2.408 2.408 0 01-.886-1.115c-.27-.668-.371-1.56-.371-2.75l-.003-7.615c0-3.71.993-4.612 5.494-4.612 4.432-.003 5.473.899 5.473 4.609v6.927zm3.165-12.92h1.966v-.115l-.003-6.844v-.113h-2.42l-.026.08-1.223 3.776.116-3.737.003-.119h-1.966v.116l.003 6.84v.116h2.466l.024-.08 1.186-3.65-.121 3.612-.006.118zm8.114 1.576l-2.948.003h-7.002v2.897h2.859v4.39l.003 9.154h4.235l-.003-13.544 2.856-.003v-2.897zM19.49 56.999l-.003-7.199c-2.692 1.821-9.24-2.211-8.454-8.201.232-3.441 1.743-6.36 2.52-10.028.69-3.259 2.53-6.585 4.277-8.288 1.609-1.575 4.598-3.018 7.677-2.728 1.18.112 2.05.73 3.727.434.08-1.233.19-3.27 1.318-3.814.723 1.28 1.407 2.6 2.412 3.595 1.121-.011 1.924-.34 2.742-.653.003.201.08.36.206.497.003.006.009.012.012.017.437.456 1.413.624 1.868 1.121 1.305-.452 2.78-1.3 4.277-1.2.012 1.868-.854 3.799-2.412 4.47.22 1.203.782 2.522.33 3.38 1.315 1.306 1.793 2.066 1.552 2.524l10.016-.003c-.821-4.792-3.1-9.21-6.63-12.719-4.501-4.467-10.48-6.927-16.84-6.927C14.96 11.283 4.283 21.9 4.286 34.947c.003 10.031 6.32 18.617 15.206 22.052zm21.922-26.525c-.753-1.08-1.152-1.552-1.538-1.786-.56 1.324-3.228.381-3.347.952.64.16 1.163.78 1.253 1.286.038.222 0 .42-.149.55.607.059 2.76-.121 3.534-.55.235-.13.348-.278.247-.452zm-4.058.653a2.353 2.353 0 00-.035-.201c-.116-.568-.396-.973-1.062-.996a.432.432 0 01-.03.171l-.27-.165-.042.21-.012.073c.08.045.166.086.238.13.006.003.015.01.023.012.366-.018.253.18 0 .148l-.023-.009-.262-.088c0 .04.003.08.006.118l.03.112c-.238.062-.461.14-.613.284a.612.612 0 00-.14.201c.158.095.345.166.327.438-.28-.057-.383-.145-.547.109.196.302.393.6.762.73.199.071.446.092.773.033.003-.01.003-.021.006-.033.038-.204-.125-.609.104-.62.288-.033.086.422.44.325.342-.373-.154-.574-.11-.982.297-.009.22.183.437 0zm-5.815-9.919c-.339-1.227-.443-2.687-1.097-3.598-.842 1.23-1.434 4.169-.372 5.508.08.098.166.192.262.272.41-.1.577-.444.987-.544v-.003c.113-.893-.866-1.218-.767-1.744.199-.006.371.558.547.218-.125-.035-.515-.337-.22-.434.324-.024.327.488.547.405 0-.003.003-.003.003-.003a.311.311 0 00.11-.077zm-.535 5.198a.517.517 0 00.208-.29 15.485 15.485 0 00-1.737.006.58.58 0 00.125.458c.033.041.068.083.11.121.253-.086.5-.154.744-.207.19-.041.374-.07.55-.088zm-.012.218c-.039.056-.405.172-.791.225-.12.038-.238.077-.354.118.143.346.86.7 1.145.456-.321-.092.05-.876 0-.799zm9.322-3.781a2.889 2.889 0 00-.413.476c-.253.36-.426.801-.465 1.378.04-.015.075-.033.11-.048 1.408-.544 2.33-2.563 2.083-3.988-.812.497-1.693.928-2.303 1.632a2.99 2.99 0 00-.327.44.35.35 0 00.084.015c.306.03.886-.292 1.231.095zm-3.778 3.527c.11.242.209.538.28.52.09-.02.535-.354.625-.617.03-.077.026-.151-.027-.204-.238-.24-.872-.287-1.074.014.069.033.134.151.196.287zm-4.979.124c-.003.003-.009.003-.012.003-.006.003-.015.003-.02.006a1.651 1.651 0 00-.158.615c-.042.887.752 1.594 2.147 1.286.568.408.759 1.212 1.645 1.307.827.089 1.32-.674 2.085-.763.467-.056.88.278 1.318.219.94-.133 1.559-1.286 1.205-2.291-.435-.326-1.03-.494-1.651-.63l-.104-.024c-.012.01-.027.018-.039.03-.568.431-1.24.757-1.169 1.824.226.414.684.177.988.325-.387.538-1.119-.195-1.425-.434-.5.641-2.32.248-1.975-.544.651.774 2.017.688 2.195-.11a.936.936 0 00-.17-.907 1.593 1.593 0 00-.392-.343c-1.047-.666-3.162-.737-4.23.053a2.099 2.099 0 00-.098.074c-.03.047-.054.091-.08.139.009 0 .017 0 .023.006.039.026.015.112-.083.16zm.31-3.743c-.682.012-.557.855-1.973.778-.205.192-.342.748-.44.662-.056.55-.16 1.239-.062 1.573.425.13 1.603-.29 2.147.024.188-.935 3.736-.719 4.414-.083 0-.012-.003-.02-.003-.033.94-.248 1.615.104 1.975.252.164-.255 1.232.023 1.511.08.012-.338-.133-.52-.22-.763-.517-.06-1.424.109-1.424.109s.645-.594 1.317-.547c.05-.514.098-.96.158-1.321.02-.113.039-.22.06-.314-.027-.006-.051-.003-.075-.006-.327-.02-.372.243-.693.225-.232-.251.167-.503-.22-.653.404-.456.181-.305.116-.627 0-.012-.003-.018-.006-.027a.104.104 0 01-.02.015c-.182.171-.39.313-.748.31.143-.496-1.023-.97-1.644-1.306-.253-.136-.408-.142-.482-.128a.906.906 0 00.19-.16c-.318.042-.904.308-.571-.2-1.374.674-2.508.875-3.197-.056a.682.682 0 00-.004.269c.027.05.045.11.063.171.08.154.193.275.16.541a.412.412 0 01-.547 0c.036.772.185.591.217 1.215zm3.051 8.178c.17-.28.455-.488.836-.559a19.51 19.51 0 00-3.584-.825c-.19-.026-.387-.047-.583-.068a21.604 21.604 0 00-1.336-.106c-.026 0-.053 0-.077-.003-.235-.009-.47-.02-.711-.027a5.31 5.31 0 01.773-.133c.015 0 .03-.003.042-.003a10.114 10.114 0 011.746.003 12.986 12.986 0 012.07.352 1.462 1.462 0 01-.514-.79c-.253-.082-.556-.026-.866.092-1.487-.15-1.657-1.262-1.657-1.262-.023.003-.053.03-.089.068-.827-.033-1.017-.26-1.49-.559a8.823 8.823 0 00-.25.104l-.05.02a12.472 12.472 0 00-1.835.987c-.087.057-.173.107-.26.166.027-.035.06-.07.09-.106.142-.175.315-.343.514-.503a6.323 6.323 0 011.342-.804 4.315 4.315 0 01.318-.136c0-.278-.247-.31-.22-.615a3.915 3.915 0 00-.443.06c-.875.162-1.467.608-2.3.815a5.547 5.547 0 012.32-1.135c.102-.024.206-.047.313-.065-.042-.843-.006-1.936.877-2.507-.023-.044-.038-.083-.062-.127-.396-.78-.625-1.384-.684-2.025-.83.212-2.591-.258-4.965-.346-2.15.198-9.387 1.564-10.613 13.058-1.056 2.283-2.385 5.91-2.156 9.287.065.964.767 3.202 1.776 4.219 3.25 2.861 3.025 2.063 2.07.171-.31-.609 2.695 1.52.58-.777 2.531.851-.083-.796-.96-1.901-.878-1.106-1.982-7.637.82-10.605.345-.021.547.11.63.337.015.106.03.21.042.31-.018.447-.294 1.067-.773 1.709-.13 1.945 1.785 1.89 1.341 3.42.444.39.83-.162 1.53-.112 2.534-.003-2.059-2.557.13-4.733.8-.695 2.404-2.102 2.713-3.261.086-.322.065-.65 0-.97-.2-.973-.89-1.868-1.113-2.516a.43.43 0 00.057.068c.351.754 1.288 2.005 1.496 2.336a.403.403 0 01.045.077c2.412.269 4.087.242 5.247.038.395.559.937 1.073 1.68 1.357.714.275 1.621.331 2.779 0 .13-.038.267-.077.407-.127.042-.192 1.267-1.218 2.79-.695.012.003.02.006.033.012 0-.027.006-.05.006-.077.012-.216.074-.417.178-.588zm-15.176 3.9v-.116c-.425.308-.815.594-1.18 1.224-.53.914.19 2.333 1.18 3.909v-5.017zm-3.007 5.026c-.035-.94-1.29-1.458-1.425-2.398-.157-1.097.78-1.564.658-2.617-.14-.006-.152-.142-.33-.109-1.35 2.616-1.75 8.003.113 10.466.743.984 2.686 2.259 3.736 2.945v-4.734a1.947 1.947 0 00-.607.411c-.776.175-1.972-.195-2.362-.695-.904-1.162.265-1.983.217-3.27zm2.752 8.366c-.786-.535-1.604-1.025-2.859-.845-.098.325.342.665.11.763-.464.026-.708-.166-1.097-.216.11.582.446.937.877 1.197-.193.027-.25.19-.217.438.047.038.101.074.158.106.755.461 2.117.39 3.028-.044v-1.4zm2.391-12.074v2.212h.312c.396 0 .453-.08.453-.382v-1.47c0-.307-.069-.36-.453-.36h-.312zm9.39 23.528l.06.13h-4.381l-.545-1.266-2.677-6.22v7.486H19.49v-1.431C9.88 54.876 3.003 45.696 3 34.947 2.997 21.197 14.252 10.003 28.087 10c6.704 0 13.004 2.593 17.746 7.3 3.774 3.751 6.196 8.488 7.025 13.623h1.247v1.475h-1.047l-1.294.003-14.682.003a1.208 1.208 0 01-.714.36 1.343 1.343 0 01-.714-.106 3.538 3.538 0 01-.44-.242l-.021-.012h-2.49c-.157.098-.318.19-.503.252-1.403.47-3.298.431-4.423-.252l-6.088.003c-.726 1.428-1.369 1.886-1.946 2.306h2.023c2.082 0 3.013.27 3.013 1.869v1.386c0 1.54-.916 1.824-2.718 1.824h-.179v1.99h-1.496c.003.447-.137.825-.467 1.13l.041-.216a4.392 4.392 0 00.06-1.295 2.024 2.024 0 00-.277-.79 1.5 1.5 0 00-.591-.54c-.218.076.026.608-.22.656-.26-.036-.206-.379-.55-.328-.25.112.053.78-.218.872-.268-.062-.244-.411-.33-.654-.455-.03-.429.142-.768 0-.699.562-.66 2.679.548 2.617.294-.107.116-.686.33-.872.488.192.077.898 0 1.2.562.086.833-.118 1.207-.219.152-.594-.252-1.064.328-1.2.068.26.157.496.11.872.065-.03.259-.198.336-.263a.273.273 0 00.027-.02c-.01.135-.19.449-.2.587-.047.012-.092.03-.14.045h4.111l.003 7.09 2.734-7.09 4.31-.003-3.462 7.728 3.402 7.37.56 1.216zm9.156-17.964l-1.243-2.649v2.717h-1.94v-2.717L36 41.714l-.03.065h-2.23l.08-.162 1.775-3.578-1.526-3.166-.08-.163h2.19l.03.071 1.034 2.433-.003-2.391v-.113h1.94v2.501l1.035-2.433.03-.068h2.186l-.078.163-1.522 3.166 1.772 3.575.08.165h-2.227l-.03-.068z" fill="#FCB814"/></svg>