<svg width="136" height="80" fill="none" xmlns="http://www.w3.org/2000/svg"><path d="M130.694 24.643V46.99l-13.418 8.187V24.643h-4.452v35.814h4.329l.014.023.038-.023h.071v-.044l13.418-8.186v17.078h4.451V24.643h-4.451zM32.062 51.44h18.06v-4.466h-18.06V29.109h18.06v-4.485H27.61v44.662h31.383v-4.448H32.062V51.44zm-8.818-26.826h-4.452v.03H.742v35.763h4.452v-.035h18.06V55.94H5.194V29.09h13.598v8.848h4.451V29.09h.01v-4.447h-.01v-.03z" fill="#fff"/><path d="M68.087 29.006v31.347h4.451V24.54H54.542v31.366h-17.87v4.466h22.384V29.006h9.03zm40.254-13.296h-8.967v4.467h8.967v-4.466zM94.923 29.09h9.051v22.35h-9.051V29.09zm-13.45 0h8.999v22.35h-8.999V29.09zm26.868 22.35V24.624h-31.32v31.282h13.45v4.447h4.452v-4.447h13.418V51.44zM68.22 64.919l-1.335 1.854v-1.854h-.796V69.2h.796v-2.13l1.335 2.13h.955l-1.574-2.348 1.574-1.933h-.955z" fill="#fff"/><mask id="a" style="mask-type:luminance" maskUnits="userSpaceOnUse" x="1" y="0" width="134" height="80"><path d="M1 0h134v80H1V0z" fill="#fff"/></mask><g mask="url(#a)" fill="#fff"><path d="M74.795 67.792a1.5 1.5 0 01-.53.543 1.365 1.365 0 01-.717.201 1.37 1.37 0 01-.716-.2 1.484 1.484 0 01-.528-.542 1.451 1.451 0 01-.196-.735 1.434 1.434 0 01.726-1.26 1.48 1.48 0 01.744-.192c.25 0 .483.066.701.199a1.474 1.474 0 01.714 1.253c0 .26-.066.505-.198.733zm-.134-2.657a2.297 2.297 0 00-1.152-.296c-.394 0-.76.1-1.098.303a2.26 2.26 0 00-.807.82c-.2.346-.3.717-.3 1.116a2.228 2.228 0 001.12 1.928c.345.199.72.299 1.123.299s.776-.1 1.122-.299a2.218 2.218 0 001.12-1.928c0-.41-.101-.787-.302-1.13a2.19 2.19 0 00-.826-.813zm5.921 1.498h-1.53v-1.714h-.795V69.2h.796v-1.793h1.529V69.2h.802v-4.281h-.802v1.714zm4.751-.827c.218-.133.453-.2.705-.2.21 0 .418.05.625.148.098.047.183.097.254.152.071.054.154.131.248.232h.906a3.568 3.568 0 00-.213-.38 2.23 2.23 0 00-.954-.745 2.247 2.247 0 00-.867-.175c-.396 0-.764.1-1.105.3-.341.2-.611.47-.81.811a2.152 2.152 0 00-.301 1.11c0 .402.1.775.302 1.12.2.345.472.62.816.822a2.15 2.15 0 001.112.303 2.27 2.27 0 001.574-.64c.09-.094.165-.183.22-.265a3.13 3.13 0 00.202-.364h-.925a2.354 2.354 0 01-.273.241 1.5 1.5 0 01-.272.15 1.327 1.327 0 01-1.235-.09 1.497 1.497 0 01-.718-1.265 1.47 1.47 0 01.71-1.264zm4.735-.119h.79V69.2h.796v-3.513h.801v-.768h-2.387v.768zm6.506.875a.547.547 0 01-.285.2c-.093.03-.246.047-.46.047h-.299v-1.122h.299c.187 0 .332.012.435.036a.57.57 0 01.304.189.493.493 0 01.113.323.534.534 0 01-.107.327zm.332-1.418a1.159 1.159 0 00-.538-.201 5.916 5.916 0 00-.624-.024h-1.01V69.2h.796v-1.623h.152c.477 0 .8-.03.973-.09.12-.047.223-.105.307-.172.16-.122.285-.28.377-.473a1.42 1.42 0 00.137-.613c0-.22-.05-.425-.151-.618a1.26 1.26 0 00-.419-.467zm4.324 1.879l-.907-2.104h-.875l1.36 2.86-.73 1.421h.877l2.118-4.281h-.876l-.967 2.104zm6.173-2.104l-1.335 1.854v-1.854h-.795V69.2h.795v-2.13l1.335 2.13h.956l-1.575-2.348 1.575-1.933h-.956zm2.958.768h.791V69.2h.795v-3.513h.801v-.768h-2.387v.768zm7.929 2.105a1.51 1.51 0 01-.53.543 1.367 1.367 0 01-.718.201c-.255 0-.493-.067-.715-.2a1.486 1.486 0 01-.725-1.277 1.43 1.43 0 01.726-1.26c.225-.129.473-.192.744-.192.25 0 .484.066.702.199a1.474 1.474 0 01.713 1.253c0 .26-.066.505-.197.733zm-.134-2.657a2.297 2.297 0 00-1.152-.296c-.394 0-.76.1-1.099.303a2.257 2.257 0 00-.806.82c-.2.346-.3.717-.3 1.116 0 .402.101.774.302 1.116.2.342.473.612.818.812.344.199.718.299 1.122.299.403 0 .777-.1 1.122-.299a2.227 2.227 0 00-.007-3.87zm5.435 1.427a.545.545 0 01-.285.2c-.092.03-.246.047-.46.047h-.299v-1.122h.299c.187 0 .332.012.435.036a.57.57 0 01.304.189.536.536 0 01.006.65zm.332-1.418a1.155 1.155 0 00-.538-.201 5.905 5.905 0 00-.624-.024h-1.01V69.2h.796v-1.623h.152c.477 0 .801-.03.973-.09a1.14 1.14 0 00.307-.172c.16-.122.285-.28.377-.473a1.42 1.42 0 00.137-.613c0-.22-.051-.425-.151-.618a1.264 1.264 0 00-.419-.467z"/></g></svg>