<?xml version="1.0" encoding="utf-8"?><svg xmlns="http://www.w3.org/2000/svg" xmlns:xlink="http://www.w3.org/1999/xlink"><symbol viewBox="0 0 42 42" id="file" xmlns="http://www.w3.org/2000/svg"><path d="M23.05 5.25h-7.3c-3.3 0-4.95 0-5.975 1.025C8.75 7.3 8.75 8.95 8.75 12.25v17.5c0 3.3 0 4.95 1.025 5.975C10.8 36.75 12.45 36.75 15.75 36.75h10.5c3.3 0 4.95 0 5.975-1.025C33.25 34.7 33.25 33.05 33.25 29.75v-14.3c0-.716 0-1.073-.133-1.395-.133-.321-.386-.574-.892-1.08l-6.7-6.7c-.506-.506-.759-.759-1.08-.892-.322-.133-.68-.133-1.395-.133z" stroke-width="4"/><path d="M15.75 22.75h10.5M15.75 29.75h7" stroke-width="4" stroke-linecap="round"/><path d="M22.75 5.25v7c0 1.65 0 2.475.513 2.987.512.513 1.337.513 2.987.513h7" stroke-width="4"/></symbol><symbol viewBox="0 0 42 42" id="mount" xmlns="http://www.w3.org/2000/svg"><circle cx="31.5" cy="10.5" r="3.5" stroke-width="4" stroke-linecap="round"/><path d="M6.456 34.125h22.248a1 1 0 0 0 .82-1.574L19.14 17.72a1 1 0 0 0-1.6-.051L5.675 32.5a1 1 0 0 0 .78 1.625z" stroke-width="4" stroke-linecap="round"/><path d="M18.375 34.125h17.32a1 1 0 0 0 .817-1.577L27.81 20.22a1 1 0 0 0-1.524-.13l-2.661 2.66" stroke-width="4" stroke-linecap="round"/></symbol><symbol viewBox="0 0 24 24" id="ok" xmlns="http://www.w3.org/2000/svg"><path fill-rule="evenodd" clip-rule="evenodd" d="M16.571 8.042c0 2.225-1.967 4.032-4.376 4.032-2.41 0-4.377-1.807-4.377-4.032C7.818 5.807 9.785 4 12.195 4c2.409 0 4.376 1.807 4.376 4.042zm-2.227 0c0-1.103-.965-1.995-2.15-1.995-1.184 0-2.15.892-2.149 1.995 0 1.093.966 1.985 2.15 1.985s2.15-.892 2.15-1.985zm-6.033 6.403c-1.1-.655-1.583-1.038-1.158-1.839.25-.455.935-.838 1.841-.178 0 0 1.225.901 3.202.901 1.976 0 3.201-.9 3.201-.9.908-.658 1.59-.278 1.842.177.419.801-.064 1.184-1.163 1.841v.001c-.924.543-2.196.757-3.037.838l1.833 1.687 1.448 1.333c.941.891-.59 2.284-1.542 1.424a497.152 497.152 0 0 0-2.527-2.343l-.048-.044-2.574 2.384c-.951.857-2.484-.548-1.532-1.424l3.27-3.02c-.006.006-.118.11 0 0-.83-.08-2.121-.284-3.056-.838z"/></symbol><symbol viewBox="0 0 24 24" id="telega" xmlns="http://www.w3.org/2000/svg"><path fill-rule="evenodd" clip-rule="evenodd" d="M9.94 12.646l-2.248-.749c-2.353-.784-3.53-1.176-3.53-1.897 0-.72 1.177-1.113 3.53-1.897l8.513-2.838c1.656-.552 2.484-.828 2.921-.391.437.437.161 1.265-.39 2.92l-2.839 8.514c-.784 2.353-1.176 3.53-1.897 3.53-.72 0-1.113-1.177-1.897-3.53l-.75-2.247 4.354-4.354a1 1 0 0 0-1.414-1.414l-4.354 4.354z"/></symbol><symbol viewBox="0 0 25 24" id="vk" xmlns="http://www.w3.org/2000/svg"><path fill-rule="evenodd" clip-rule="evenodd" d="M21.087 7.677c.125-.39 0-.677-.596-.677h-1.969c-.5 0-.731.248-.856.521 0 0-1.002 2.283-2.42 3.766-.46.43-.668.566-.918.566-.126 0-.307-.136-.307-.526v-3.65c0-.468-.145-.677-.562-.677h-3.095c-.313 0-.5.217-.5.423 0 .444.708.547.781 1.796v2.713c0 .594-.114.702-.365.702-.667 0-2.291-2.293-3.254-4.918C6.837 7.206 6.648 7 6.144 7H4.175c-.562 0-.675.248-.675.521 0 .488.668 2.908 3.109 6.109 1.627 2.185 3.92 3.37 6.006 3.37 1.252 0 1.406-.263 1.406-.716v-1.652c0-.527.119-.632.515-.632.292 0 .793.137 1.961 1.19 1.335 1.25 1.555 1.81 2.307 1.81h1.969c.562 0 .844-.263.681-.782-.177-.518-.815-1.269-1.66-2.16-.46-.507-1.148-1.053-1.356-1.326-.293-.352-.21-.508 0-.82 0 0 2.399-3.161 2.649-4.235z"/></symbol></svg>