<?xml version="1.0" encoding="utf-8"?><svg xmlns="http://www.w3.org/2000/svg" xmlns:xlink="http://www.w3.org/1999/xlink"><symbol viewBox="0 0 42 42" id="file" xmlns="http://www.w3.org/2000/svg"><path fill-rule="evenodd" clip-rule="evenodd" d="M23.495 7.252a31.327 31.327 0 0 0-.445-.002h-7.3c-1.706 0-2.785.004-3.574.11-.731.099-.908.25-.987.33-.079.078-.23.255-.329.986-.106.789-.11 1.868-.11 3.574v17.5c0 1.706.004 2.785.11 3.574.099.731.25.908.33.987.078.079.255.23.986.329.789.106 1.868.11 3.574.11h10.5c1.706 0 2.785-.004 3.574-.11.731-.099.908-.25.987-.33.079-.078.23-.255.329-.986.106-.789.11-1.867.11-3.574v-14.3c0-.183 0-.324-.002-.445a6.419 6.419 0 0 0-.005-.174 32.034 32.034 0 0 0-.433-.442l-6.7-6.7a32.212 32.212 0 0 0-.441-.432 6.057 6.057 0 0 0-.174-.005zM23.2 3.25c.546-.003 1.302-.007 2.01.286.706.292 1.238.83 1.623 1.218l.105.107 6.7 6.7.107.105c.388.385.926.917 1.219 1.624.292.707.288 1.463.286 2.01l-.001.15v14.428c0 1.54 0 2.892-.146 3.979-.158 1.175-.519 2.336-1.465 3.282-.946.946-2.107 1.307-3.282 1.465-1.087.146-2.439.146-3.98.146H15.623c-1.54 0-2.892 0-3.979-.146-1.175-.158-2.336-.519-3.282-1.465-.946-.946-1.307-2.107-1.465-3.282-.146-1.087-.146-2.439-.146-3.979V12.25v-.128c0-1.54 0-2.892.146-3.979.158-1.175.519-2.336 1.465-3.282.946-.946 2.107-1.307 3.282-1.465 1.087-.146 2.439-.146 3.98-.146H23.2z"/><path fill-rule="evenodd" clip-rule="evenodd" d="M13.75 22.75a2 2 0 0 1 2-2h10.5a2 2 0 1 1 0 4h-10.5a2 2 0 0 1-2-2zM13.75 29.75a2 2 0 0 1 2-2h7a2 2 0 1 1 0 4h-7a2 2 0 0 1-2-2zM20.75 12.25v-7h4v7c0 .726.003 1.166.027 1.473.307.024.747.027 1.473.027h7v4h-7.103c-.735 0-1.472 0-2.084-.082-.698-.094-1.525-.326-2.215-1.016s-.922-1.517-1.016-2.215c-.082-.612-.082-1.35-.082-2.083v-.104z"/></symbol><symbol viewBox="0 0 24 24" id="mail" xmlns="http://www.w3.org/2000/svg"><path fill-rule="evenodd" clip-rule="evenodd" d="M3.013 9.151C3 9.691 3 10.302 3 11v2c0 2.828 0 4.243.879 5.121C4.757 19 6.172 19 9 19h6c2.828 0 4.243 0 5.121-.879C21 17.243 21 15.828 21 13v-2c0-.698 0-1.31-.013-1.849l-8.016 4.453a2 2 0 0 1-1.942 0L3.013 9.151zm.23-2.121c.083.02.164.052.243.096L12 11.856l8.514-4.73c.079-.044.16-.075.243-.096-.13-.474-.33-.845-.636-1.151C19.243 5 17.828 5 15 5H9c-2.828 0-4.243 0-5.121.879-.307.306-.506.677-.636 1.15z"/></symbol><symbol viewBox="0 0 42 42" id="mount" xmlns="http://www.w3.org/2000/svg"><path fill-rule="evenodd" clip-rule="evenodd" d="M31.5 9a1.5 1.5 0 1 0 0 3 1.5 1.5 0 0 0 0-3zM26 10.5a5.5 5.5 0 1 1 11 0 5.5 5.5 0 0 1-11 0zM18.268 19.96L8.536 32.125h18.248L18.268 19.96zm-2.289-3.542a3 3 0 0 1 4.8.154l10.383 14.833c1.392 1.988-.03 4.72-2.458 4.72H6.456c-2.516 0-3.914-2.91-2.343-4.874l11.866-14.833z"/><path fill-rule="evenodd" clip-rule="evenodd" d="M24.871 18.675a3 3 0 0 1 4.573.392l8.702 12.328c1.403 1.987-.019 4.73-2.45 4.73H18.374a2 2 0 1 1 0-4h15.39l-6.905-9.782-1.82 1.821a2 2 0 1 1-2.83-2.828l2.661-2.66z"/></symbol><symbol viewBox="0 0 24 24" id="ok" xmlns="http://www.w3.org/2000/svg"><path fill-rule="evenodd" clip-rule="evenodd" d="M16.571 8.042c0 2.225-1.967 4.032-4.376 4.032-2.41 0-4.377-1.807-4.377-4.032C7.818 5.807 9.785 4 12.195 4c2.409 0 4.376 1.807 4.376 4.042zm-2.227 0c0-1.103-.965-1.995-2.15-1.995-1.184 0-2.15.892-2.149 1.995 0 1.093.966 1.985 2.15 1.985s2.15-.892 2.15-1.985zm-6.033 6.403c-1.1-.655-1.583-1.038-1.158-1.839.25-.455.935-.838 1.841-.178 0 0 1.225.901 3.202.901 1.976 0 3.201-.9 3.201-.9.908-.658 1.59-.278 1.842.177.419.801-.064 1.184-1.163 1.841v.001c-.924.543-2.196.757-3.037.838l1.833 1.687 1.448 1.333c.941.891-.59 2.284-1.542 1.424a497.152 497.152 0 0 0-2.527-2.343l-.048-.044-2.574 2.384c-.951.857-2.484-.548-1.532-1.424l3.27-3.02c-.006.006-.118.11 0 0-.83-.08-2.121-.284-3.056-.838z"/></symbol><symbol viewBox="0 0 25 24" id="phone" xmlns="http://www.w3.org/2000/svg"><path d="M6.257 4.906l.614-.613a1 1 0 0 1 1.414 0l2.586 2.586a1 1 0 0 1 0 1.414l-1.793 1.792a.982.982 0 0 0-.184 1.134 11.293 11.293 0 0 0 5.05 5.05.982.982 0 0 0 1.134-.184l1.793-1.792a1 1 0 0 1 1.414 0l2.586 2.586a1 1 0 0 1 0 1.414l-.614.613a6 6 0 0 1-7.842.558l-1.209-.907a22.999 22.999 0 0 1-4.6-4.6L5.7 12.75a6 6 0 0 1 .557-7.843z"/></symbol><symbol viewBox="0 0 24 24" id="telega" xmlns="http://www.w3.org/2000/svg"><path fill-rule="evenodd" clip-rule="evenodd" d="M9.94 12.646l-2.248-.749c-2.353-.784-3.53-1.176-3.53-1.897 0-.72 1.177-1.113 3.53-1.897l8.513-2.838c1.656-.552 2.484-.828 2.921-.391.437.437.161 1.265-.39 2.92l-2.839 8.514c-.784 2.353-1.176 3.53-1.897 3.53-.72 0-1.113-1.177-1.897-3.53l-.75-2.247 4.354-4.354a1 1 0 0 0-1.414-1.414l-4.354 4.354z"/></symbol><symbol viewBox="0 0 25 24" id="vk" xmlns="http://www.w3.org/2000/svg"><path fill-rule="evenodd" clip-rule="evenodd" d="M21.087 7.677c.125-.39 0-.677-.596-.677h-1.969c-.5 0-.731.248-.856.521 0 0-1.002 2.283-2.42 3.766-.46.43-.668.566-.918.566-.126 0-.307-.136-.307-.526v-3.65c0-.468-.145-.677-.562-.677h-3.095c-.313 0-.5.217-.5.423 0 .444.708.547.781 1.796v2.713c0 .594-.114.702-.365.702-.667 0-2.291-2.293-3.254-4.918C6.837 7.206 6.648 7 6.144 7H4.175c-.562 0-.675.248-.675.521 0 .488.668 2.908 3.109 6.109 1.627 2.185 3.92 3.37 6.006 3.37 1.252 0 1.406-.263 1.406-.716v-1.652c0-.527.119-.632.515-.632.292 0 .793.137 1.961 1.19 1.335 1.25 1.555 1.81 2.307 1.81h1.969c.562 0 .844-.263.681-.782-.177-.518-.815-1.269-1.66-2.16-.46-.507-1.148-1.053-1.356-1.326-.293-.352-.21-.508 0-.82 0 0 2.399-3.161 2.649-4.235z"/></symbol></svg>